<?xml version="1.0" encoding="UTF-8" standalone="no"?>
<!-- Created with Inkscape (http://www.inkscape.org/) -->

<svg
   inkscape:version="1.1.2 (0a00cf5339, 2022-02-04)"
   sodipodi:docname="Banner_creditos.svg"
   viewBox="0 0 1518.6667 609.33331"
   height="609.33331"
   width="1518.6667"
   id="svg61167"
   version="1.1"
   xmlns:inkscape="http://www.inkscape.org/namespaces/inkscape"
   xmlns:sodipodi="http://sodipodi.sourceforge.net/DTD/sodipodi-0.dtd"
   xmlns:xlink="http://www.w3.org/1999/xlink"
   xmlns="http://www.w3.org/2000/svg"
   xmlns:svg="http://www.w3.org/2000/svg">
  <defs
     id="defs61171">
    <style
       id="style61404">
      .cls-1 {
        fill: #fff;
      }

      .cls-2 {
        fill: #dbdcdd;
      }
    </style>
    <style
       id="style1144">
      .cls-1 {
        fill: #e86e00;
      }

      .cls-2 {
        fill: #e06500;
      }

      .cls-3 {
        fill: #c65500;
      }
    </style>
    <filter
       style="color-interpolation-filters:sRGB;"
       inkscape:label="Drop Shadow"
       id="filter4441"
       x="-0.0081296223"
       y="-0.026053559"
       width="1.0209026"
       height="1.0704607">
      <feFlood
         flood-opacity="0.498039"
         flood-color="rgb(0,0,0)"
         result="flood"
         id="feFlood4431" />
      <feComposite
         in="flood"
         in2="SourceGraphic"
         operator="in"
         result="composite1"
         id="feComposite4433" />
      <feGaussianBlur
         in="composite1"
         stdDeviation="4.02638"
         result="blur"
         id="feGaussianBlur4435" />
      <feOffset
         dx="5.5193"
         dy="6.80736"
         result="offset"
         id="feOffset4437" />
      <feComposite
         in="SourceGraphic"
         in2="offset"
         operator="over"
         result="composite2"
         id="feComposite4439" />
    </filter>
  </defs>
  <sodipodi:namedview
     id="namedview61169"
     pagecolor="#ffffff"
     bordercolor="#666666"
     borderopacity="1.0"
     inkscape:pageshadow="2"
     inkscape:pageopacity="0.0"
     inkscape:pagecheckerboard="true"
     showgrid="false"
     inkscape:zoom="0.40624493"
     inkscape:cx="759.39409"
     inkscape:cy="304.00379"
     inkscape:window-width="1920"
     inkscape:window-height="1012"
     inkscape:window-x="0"
     inkscape:window-y="0"
     inkscape:window-maximized="1"
     inkscape:current-layer="layer4" />
  <g
     inkscape:groupmode="layer"
     inkscape:label="Image"
     id="g61173">
    <g
       id="g1156"
       transform="matrix(1.1722883,0,0,1.1722883,92.218945,29.539902)">
      <path
         d="m 0.1,346.7 c 0,-27.1 0,-54.2 0,-81.3 0,-34.4 -0.4,-68.8 0.2,-103.1 0.2,-14.2 0.5,-28.4 0.9,-42.7 0.2,-9.5 7.7,-17.1 15.4,-18.9 24,-5.4 48.3,-9.8 72.1,-15.8 17.5,-4.4 34.2,-10.7 51,-17 5.5,-2.1 11.1,-4.2 16.7,-5.9 25.5,-7.9 51.3,-15 77.3,-21 22.9,-5.3 45.9,-10.3 68.9,-14.9 14.3,-2.9 28.7,-4.8 43.1,-7.1 12,-2 23.9,-4.5 35.9,-5.8 9.1,-1 18.1,-2.5 27.2,-3.3 10,-0.9 20,-2.7 30,-3.8 8.3,-0.9 16.6,-1.4 25,-2.1 16.3,-1.3 32.7,-2.8 49,-3.5 3.6,-0.1 7.2,-0.6 10.8,-0.6 26.6,0.1 53.3,-0.2 79.9,0.2 15.8,0.2 31.7,1 47.5,2 15.3,1 30.7,2.2 46,4 15.2,1.8 30.4,3.7 45.5,5.6 12.9,1.7 25.8,3.5 38.6,5.3 14.6,2 29,4.9 43.5,7.6 16,3 32,6 48,9.3 11.2,2.3 22.2,5.3 33.4,7.7 29.4,6.4 58.1,14.9 86.6,24.2 13.1,4.3 25.8,9.7 38.9,13.9 18.5,6 37.6,9.8 56.6,14 11.9,2.7 24.1,4.1 35.8,7.7 5.8,1.8 13.2,11.1 13,17.3 -0.7,20.4 1.1,40.7 1,61.1 0,83.3 0,166.6 0,249.9 0,8.1 -1.4,15.8 -8.6,21.5 -5.5,4.3 -12,4.7 -17.7,3.3 -8.2,-2 -16.5,-2.9 -24.7,-4.6 -32.1,-6.6 -64,-14.3 -95,-25 -22.1,-7.6 -44.1,-15.5 -66.2,-22.9 -24.4,-8.1 -49.1,-14.9 -74.1,-20.8 -23.1,-5.4 -46.2,-10.3 -69.6,-14.3 -19.3,-3.3 -38.7,-6.4 -58.1,-9 -13.4,-1.8 -26.8,-3.5 -40.2,-4.9 -15,-1.6 -29.9,-3 -45,-4.1 -12.3,-0.9 -24.7,-1.1 -37,-2 -19.6,-1.5 -39.1,-0.6 -58.7,-0.7 -13.5,0 -27,1 -40.5,1.9 -11.4,0.7 -22.8,1.8 -34.2,3 -13.3,1.4 -26.4,3.6 -39.7,4.8 -10.9,0.9 -21.6,3 -32.4,4.2 -10.6,1.2 -21.2,3.1 -31.7,5 -13.2,2.4 -26.2,5.4 -39.4,7.8 -19.8,3.6 -39.4,8.3 -58.8,13.4 -23.1,6 -46,12.7 -68.6,20.6 -20.4,7.1 -40.8,14.1 -61.3,21.1 -13.8,4.8 -28.1,7.9 -42.1,11.9 -15.6,4.5 -31.5,7.1 -47.3,10.6 -7.8,1.8 -15.9,2.8 -23.9,4.1 -10.7,1.8 -19.2,-4.5 -22,-16 -0.8,-3.2 -1,-6.6 -1,-9.9 0,-27.4 0,-54.9 0,-82.3 z M 13.3,415 c 0,6.5 -0.3,13 -0.2,19.4 0.1,5.6 4.4,8.5 9.8,7.1 1.9,-0.5 3.8,-1.2 5.7,-1.5 22.6,-3.2 44.8,-8.1 66.9,-13.8 10.1,-2.6 20.2,-5.4 30.2,-8.6 7.9,-2.5 16.1,-4.4 23.9,-7.1 16.1,-5.5 31.9,-11.8 48,-17.5 29.4,-10.3 59.3,-18.6 89.7,-25.7 20.6,-4.8 41.2,-9.4 62,-13 19.5,-3.4 39,-7.3 58.7,-9.3 14.5,-1.5 28.9,-4.1 43.5,-5.8 14.4,-1.6 28.8,-3 43.3,-4 18,-1.3 36,-2.4 54,-3 26.7,-1 53.5,0.6 80.1,2.1 5.3,0.3 10.6,0.4 15.8,0.9 15.7,1.5 31.4,3.2 47.1,4.9 11.9,1.3 23.9,2.4 35.8,4.2 15.9,2.3 31.7,5.2 47.6,7.7 19.9,3.1 39.6,7.2 59.3,11.7 15.2,3.4 30.3,7.1 45.3,11 22.2,5.7 44.2,12.1 65.7,20.1 28.5,10.5 56.9,21.5 86.5,28.8 20,5 40,10.1 60.4,13.6 7,1.2 14.2,1.7 21,4.5 4.5,1.9 11.5,-3 11.6,-7.4 0,-6.8 -0.1,-13.6 -0.2,-20.4 0,-2.3 0.2,-4.6 0.2,-7 0,-78 0,-156 0,-234 0,-2.8 -0.1,-5.6 -0.2,-8.4 0.6,-13.3 -0.2,-26.6 1,-40 0.8,-9 -4.3,-11.7 -11.5,-12.8 -11.7,-1.8 -23.2,-4.4 -34.8,-6.8 C 1052.2,99.2 1025.8,90.8 999.3,82.3 967.8,72.2 936.1,62.7 903.8,55.1 883,50.2 862.1,45.8 841.1,41.8 825.8,38.9 810.4,36.3 795,33.6 781.2,31.2 767.4,28.9 753.5,27 c -11.3,-1.6 -22.7,-3.3 -34.1,-4.3 -13.7,-1.2 -27.2,-3.4 -40.9,-4.8 -11.4,-1.1 -22.9,-2 -34.3,-2.9 -13.3,-1.2 -26.7,-1.8 -40.1,-2 -17,-0.3 -34,-0.2 -50.9,0 -8.9,0.1 -17.8,0.2 -26.8,0.7 -16.4,0.9 -32.9,1.5 -49.3,3.2 -9.6,1 -19.4,1.1 -29,2.1 -15.6,1.7 -31.1,3.9 -46.6,5.9 -15.2,2 -30.4,3.7 -45.5,6.1 -19.1,3 -38.1,6.2 -57,10 -23.2,4.6 -46.3,9.4 -69.3,15 -27.7,6.8 -55.2,14.7 -82.3,23.6 -14.4,4.7 -29,8.9 -43.3,13.9 -9.3,3.2 -19.3,4.3 -28.6,7.4 -9.4,3.1 -19.2,3.5 -28.6,6.6 -7.6,2.5 -15.9,3 -23.9,4.2 -6.8,1 -10.8,5.1 -10.8,12.1 0,4.6 0.9,9.2 0.9,13.7 0.1,30.9 0.2,61.8 0.2,92.8 0,0.8 -0.2,1.6 -0.2,2.5 0,36.7 0,73.3 0,110 0,24 0.2,48.1 0.2,72.1 z"
         id="path1148" />
      <path
         class="cls-2"
         d="m 1124.8,164.6 c 0,2.8 0.2,5.6 0.2,8.4 0,78 0,156 0,234 0,2.3 -0.2,4.6 -0.2,7 -2.8,0.6 -3.6,3.1 -5.3,4.9 -2.5,2.6 -4.3,7.1 -9,6 -6.4,-1.6 -12.9,-0.7 -19.3,-1.6 -15.9,-2.2 -31.7,-4.8 -47.2,-9.2 -26.4,-7.4 -51.9,-17.4 -78,-25.7 -17.1,-5.4 -33.8,-11.9 -50.9,-17.4 -17.3,-5.6 -34.9,-10.2 -52.8,-13.7 -21.1,-4.1 -41.7,-10.5 -62.8,-14.7 -20.3,-4 -40.6,-7.6 -61.1,-10.3 -16.1,-2.1 -32.2,-3.8 -48.3,-5.4 -15.8,-1.5 -31.7,-2.6 -47.5,-3.6 -12.4,-0.8 -24.8,-1.8 -37.2,-1.9 -25.3,-0.2 -50.5,-0.8 -75.8,0.5 -19.9,1 -39.7,1.6 -59.6,3.2 -12.5,1 -25.1,1.7 -37.6,3.2 -16.6,2.1 -33.1,4 -49.6,6.6 -24.5,3.8 -48.9,8.2 -73.1,13.8 -29.1,6.7 -57.5,15.7 -85.7,25.7 -18.6,6.6 -37.6,11.9 -56.6,17.3 -34.6,9.8 -68.5,21.9 -103.9,29 -11.8,2.4 -23.6,5.3 -35.6,6.2 -3.4,0.3 -5.5,-1.1 -7.5,-3.8 -2.2,-2.8 -3.5,-6.4 -6.8,-8.3 0,-24 -0.2,-48.1 -0.2,-72.1 0,-36.7 0,-73.3 0,-110 0,-0.8 0.1,-1.6 0.2,-2.5 1.7,-3.5 1.3,-7.5 1.6,-11.1 1.7,-21.5 2.7,-43 4.3,-64.4 0.8,-10.7 2.2,-21.4 6.4,-31.5 0.9,-2.2 2.1,-3.2 4.5,-3.7 13.5,-2.8 27.1,-4.6 40.5,-7.4 19.5,-4.1 38.8,-9.1 57.5,-16 29.7,-11 59.4,-22.1 90.5,-28.9 40.4,-8.9 81.1,-16.6 121.9,-23.2 31.4,-5.1 62.8,-9.5 94.4,-13.4 23.7,-2.9 47.4,-5.8 71.2,-6.3 31.1,-0.7 62.2,-1.1 93.3,0.5 19.4,1 38.8,1.7 58.1,3 16.4,1.1 32.7,2.5 49,4 23.1,2.1 46.1,4.9 69,8.3 32.6,4.9 65,10.7 97,18.7 13.2,3.3 27,3.4 40.1,6.9 19.4,5.1 38.8,10.3 57.9,16.6 33.1,11 67,19 100.3,29.6 12,3.8 24.3,6.5 36.3,10.8 9.1,3.2 12.8,9.6 13.9,18.5 1,7.8 2.5,15.6 3.7,23.4 z"
         id="path1150" />
      <path
         class="cls-3"
         d="m 13.4,415 c 3.3,2 4.6,5.5 6.8,8.3 2,2.6 4.1,4 7.5,3.8 12.1,-0.9 23.8,-3.9 35.6,-6.2 35.3,-7.1 69.3,-19.2 103.9,-29 19,-5.4 38,-10.7 56.6,-17.3 28.2,-10 56.6,-18.9 85.7,-25.7 24.2,-5.6 48.6,-10 73.1,-13.8 16.5,-2.6 33.1,-4.5 49.6,-6.6 12.5,-1.6 25.1,-2.2 37.6,-3.2 19.8,-1.6 39.7,-2.2 59.6,-3.2 25.3,-1.3 50.6,-0.7 75.8,-0.5 12.4,0 24.8,1.1 37.2,1.9 15.8,1 31.7,2.1 47.5,3.6 16.1,1.6 32.3,3.3 48.3,5.4 20.5,2.7 40.8,6.2 61.1,10.3 21.1,4.2 41.7,10.6 62.8,14.7 17.9,3.5 35.5,8.1 52.8,13.7 17.1,5.5 33.8,11.9 50.9,17.4 26.1,8.3 51.7,18.2 78,25.7 15.5,4.4 31.3,6.9 47.2,9.2 6.4,0.9 12.9,0 19.3,1.6 4.6,1.1 6.5,-3.4 9,-6 1.7,-1.7 2.6,-4.3 5.3,-4.9 0,6.8 0.3,13.6 0.2,20.4 0,4.4 -7.1,9.2 -11.6,7.4 -6.8,-2.8 -14,-3.3 -21,-4.5 -20.4,-3.5 -40.4,-8.6 -60.4,-13.6 -29.6,-7.4 -58,-18.3 -86.5,-28.8 -21.5,-7.9 -43.5,-14.4 -65.7,-20.1 -15.1,-3.8 -30.2,-7.6 -45.3,-11 -19.6,-4.4 -39.4,-8.5 -59.3,-11.7 -15.9,-2.5 -31.7,-5.4 -47.6,-7.7 -11.9,-1.7 -23.8,-2.9 -35.8,-4.2 -15.7,-1.7 -31.4,-3.4 -47.1,-4.9 -5.2,-0.5 -10.6,-0.6 -15.8,-0.9 -26.7,-1.5 -53.4,-3.1 -80.1,-2.1 -18,0.6 -36,1.7 -54,3 -14.4,1 -28.9,2.4 -43.3,4 -14.5,1.7 -28.9,4.3 -43.5,5.8 -19.8,2.1 -39.2,5.9 -58.7,9.3 -20.8,3.7 -41.4,8.3 -62,13 -30.3,7 -60.3,15.4 -89.7,25.7 -16.1,5.6 -31.9,12 -48,17.5 -7.8,2.7 -16.1,4.6 -23.9,7.1 -10,3.2 -20.1,6 -30.2,8.6 -22.1,5.8 -44.3,10.6 -66.9,13.8 -1.9,0.3 -3.8,1 -5.7,1.5 -5.4,1.4 -9.6,-1.6 -9.8,-7.1 -0.2,-6.5 0.1,-12.9 0.2,-19.4 z"
         id="path1152" />
      <path
         class="cls-1"
         d="m 1124.8,164.6 c -1.3,-7.8 -2.7,-15.6 -3.7,-23.4 -1.2,-8.9 -4.8,-15.3 -13.9,-18.5 -11.9,-4.2 -24.2,-7 -36.3,-10.8 -33.2,-10.5 -67.2,-18.6 -100.3,-29.6 -19,-6.3 -38.5,-11.5 -57.9,-16.6 -13.1,-3.5 -26.9,-3.6 -40.1,-6.9 -32,-7.9 -64.5,-13.7 -97,-18.7 -22.9,-3.5 -45.9,-6.2 -69,-8.3 -16.3,-1.5 -32.7,-2.9 -49,-4 -19.4,-1.3 -38.8,-2.1 -58.1,-3 -31.1,-1.5 -62.2,-1.2 -93.3,-0.5 -23.8,0.5 -47.5,3.4 -71.2,6.3 -31.5,3.9 -63,8.3 -94.4,13.4 -40.9,6.6 -81.5,14.4 -121.9,23.2 -31.1,6.8 -60.8,17.9 -90.5,28.9 -18.7,6.9 -38,11.9 -57.5,16 -13.4,2.8 -27.1,4.6 -40.5,7.4 -2.5,0.5 -3.6,1.5 -4.5,3.7 -4.2,10.1 -5.6,20.8 -6.4,31.5 -1.6,21.5 -2.6,43 -4.3,64.4 -0.3,3.7 0,7.6 -1.6,11.1 0,-30.9 0,-61.8 -0.2,-92.8 0,-4.6 -0.9,-9.2 -0.9,-13.7 0,-7 4,-11.1 10.8,-12.1 8,-1.2 16.3,-1.8 23.9,-4.2 9.4,-3 19.2,-3.5 28.6,-6.6 9.3,-3 19.3,-4.1 28.6,-7.4 14.3,-5 28.9,-9.2 43.3,-13.9 27.2,-8.9 54.6,-16.8 82.3,-23.6 22.9,-5.6 46.1,-10.4 69.3,-15 18.9,-3.8 38,-7 57,-10 15.1,-2.4 30.4,-4.1 45.5,-6.1 15.5,-2 31,-4.2 46.6,-5.9 9.6,-1.1 19.4,-1.2 29,-2.1 16.4,-1.7 32.8,-2.3 49.3,-3.2 8.9,-0.5 17.9,-0.5 26.8,-0.7 17,-0.2 34,-0.3 50.9,0 13.4,0.3 26.8,0.9 40.1,2 11.4,1 22.9,1.8 34.3,2.9 13.7,1.3 27.2,3.6 40.9,4.8 11.4,1 22.8,2.7 34.1,4.3 13.9,1.9 27.7,4.2 41.5,6.6 15.4,2.6 30.8,5.3 46.1,8.2 21,4 41.9,8.4 62.7,13.3 32.3,7.6 64,17.1 95.5,27.2 26.4,8.5 52.9,16.9 80.2,22.6 11.6,2.4 23.1,4.9 34.8,6.8 7.3,1.1 12.3,3.8 11.5,12.8 -1.2,13.3 -0.4,26.7 -1,40 z"
         id="path1154" />
    </g>
  </g>
  <g
     inkscape:groupmode="layer"
     id="layer4"
     inkscape:label="texto">
    <text
       xml:space="preserve"
       style="font-size:244.718px;line-height:1.25;font-family:Chilanka;-inkscape-font-specification:Chilanka;stroke-width:7.64745;filter:url(#filter4441)"
       id="text68780"><textPath
         xlink:href="#path71280"
         id="textPath71422"
         style="font-style:normal;font-variant:normal;font-weight:normal;font-stretch:normal;font-size:244.718px;font-family:'Fredoka SemiExpanded';-inkscape-font-specification:'Fredoka SemiExpanded, ';fill:#ffffff;fill-opacity:1;stroke-width:7.64745">Créditos</textPath></text>
    <ellipse
       style="fill:none;stroke:none;stroke-width:2.09284;stroke-linecap:round;stroke-linejoin:round;stroke-opacity:1;paint-order:markers stroke fill"
       id="path71280"
       cx="-1106.9987"
       cy="-397.02771"
       rx="679.4043"
       ry="365.07486"
       transform="matrix(-0.95737105,-0.288861,0.27091143,-0.96260428,0,0)" />
  </g>
</svg>
