<?xml version="1.0" encoding="UTF-8" standalone="no"?>
<!-- Created with Inkscape (http://www.inkscape.org/) -->

<svg
   version="1.1"
   id="svg44864"
   width="1545.3333"
   height="477.33334"
   viewBox="0 0 1545.3333 477.33334"
   sodipodi:docname="btn_creditos.svg"
   inkscape:version="1.1.2 (0a00cf5339, 2022-02-04)"
   xmlns:inkscape="http://www.inkscape.org/namespaces/inkscape"
   xmlns:sodipodi="http://sodipodi.sourceforge.net/DTD/sodipodi-0.dtd"
   xmlns="http://www.w3.org/2000/svg"
   xmlns:svg="http://www.w3.org/2000/svg">
  <defs
     id="defs44868">
    <style
       id="style45487">
      .cls-1 {
        fill: #7d89a2;
      }

      .cls-2 {
        fill: #010001;
      }

      .cls-3 {
        fill: #5e697e;
      }

      .cls-4 {
        fill: #4a515e;
      }

      .cls-5 {
        fill: #333840;
        opacity: .5;
      }

      .cls-6 {
        fill: #505a6d;
      }
    </style>
    <filter
       style="color-interpolation-filters:sRGB;"
       inkscape:label="Drop Shadow"
       id="filter60997"
       x="-0.01532668"
       y="-0.10755073"
       width="1.0310031"
       height="1.2005518">
      <feFlood
         flood-opacity="0.498039"
         flood-color="rgb(0,0,0)"
         result="flood"
         id="feFlood60987" />
      <feComposite
         in="flood"
         in2="SourceGraphic"
         operator="in"
         result="composite1"
         id="feComposite60989" />
      <feGaussianBlur
         in="composite1"
         stdDeviation="7.3028"
         result="blur"
         id="feGaussianBlur60991" />
      <feOffset
         dx="0.4"
         dy="-2.74199"
         result="offset"
         id="feOffset60993" />
      <feComposite
         in="SourceGraphic"
         in2="offset"
         operator="over"
         result="composite2"
         id="feComposite60995" />
    </filter>
  </defs>
  <sodipodi:namedview
     id="namedview44866"
     pagecolor="#ffffff"
     bordercolor="#666666"
     borderopacity="1.0"
     inkscape:pageshadow="2"
     inkscape:pageopacity="0.0"
     inkscape:pagecheckerboard="true"
     showgrid="false"
     inkscape:zoom="0.56460314"
     inkscape:cx="772.22384"
     inkscape:cy="238.22043"
     inkscape:window-width="1920"
     inkscape:window-height="1012"
     inkscape:window-x="0"
     inkscape:window-y="0"
     inkscape:window-maximized="1"
     inkscape:current-layer="g44870" />
  <g
     inkscape:groupmode="layer"
     inkscape:label="Image"
     id="g44870">
    <g
       id="g45511"
       transform="matrix(1.3151791,0,0,1.3151791,11.132029,3.7099255)">
      <path
         class="cls-5"
         d="M 1153.2,140.2 C 1143.2,97.6 1119,62.9 1081.3,36.9 1061.4,23.2 1038,13.3 1007.8,5.9 991.3,1.9 973.5,0 951.9,0 h -0.2 C 710.4,0.1 465,0 227.7,0 H 185.8 C 176.2,0 167.3,1.9 157.5,4.2 136.8,9.1 120,14.9 104.8,22.6 82.7,33.7 65.1,46.5 50.8,61.9 20.5,94.6 5.4,130.1 4.5,170.3 v 0 c 0,0.6 0,1.3 0,2.2 L 0,165 5.3,199.1 c 0.2,3.8 2.6,19.2 3.5,23.4 6,27.7 20.9,53.3 45.5,78.3 17.5,17.8 39.6,31.9 65.8,42 16,6.1 35.2,12.7 56.2,14.4 h 0.3 c 0,0 0.3,0 0.3,0 11.8,0 23.7,0 35.5,0 27.9,0 56.7,-0.2 85,-0.2 15.5,0 31.3,0 46.6,0.2 7,0 14.1,0 21.1,0.1 h 0.1 c 0,0 0.1,0 0.1,0 1.2,0 2.4,0 3.5,-0.1 2.5,0 4.9,-0.2 7.2,-0.2 134.9,0 269.7,0 404.6,0 3.5,0 7.2,0 10.7,0.2 1.7,0 3.4,0 5.1,0.1 h 0.2 c 7.6,0 15.3,0 22.9,-0.1 16.6,0 33.9,-0.2 50.8,-0.2 26.8,0 54,0 80.4,0.2 11.4,0 22.8,0 34.2,0.1 h 0.6 c 0,0 0.6,0 0.6,0 25.3,-4.5 47.4,-11.1 67.4,-20.3 23.4,-10.7 44.9,-27 65.8,-49.8 4.5,-5 8.7,-10.3 12.4,-16 0,0 7.9,-11.8 7,-12.1 3,-5.8 5.5,-11.9 7.6,-18.1 3.4,-10.2 19.7,-63 7,-100.6 z"
         id="path45491" />
      <g
         id="g45509">
        <path
           class="cls-6"
           d="m 1136,265.9 -0.4,-0.6 c 0,0 0.8,-0.3 0.8,-0.3 0,0.3 -0.2,0.6 -0.4,0.9 z"
           id="path45493" />
        <path
           class="cls-2"
           d="M 11,170.4 C 11.9,129.7 28.4,95.7 55.6,66.3 70.5,50.3 88.2,38.2 107.7,28.4 124.1,20.2 141.3,14.7 159,10.6 c 8.8,-2.1 17.7,-4.1 26.8,-4.1 255.3,0 510.6,0 765.9,0 18.4,0 36.5,1.3 54.5,5.8 25.5,6.2 49.7,15.1 71.3,30 35.6,24.5 59.4,57.4 69.3,99.7 11.8,34.4 -2.6,83.6 -6.9,96.7 -5.4,16.3 -14.3,31.5 -25.7,43.8 -18.1,19.8 -38.8,36.8 -63.7,48.3 -21.1,9.7 -43.1,15.8 -65.8,19.8 -38.2,-0.1 -76.4,-0.3 -114.6,-0.3 -24.6,0 -49.1,0.2 -73.7,0.3 -5.3,-0.1 -10.6,-0.3 -16,-0.3 -134.9,0 -269.7,0 -404.6,0 -3.7,0 -7.3,0.2 -11,0.3 -22.6,-0.1 -45.2,-0.3 -67.7,-0.3 -40.2,0 -80.4,0.2 -120.5,0.3 -18.9,-1.5 -36.8,-7.2 -54.4,-14 C 98.3,327.4 76.6,314.3 58.7,296.1 37.9,275 21.4,250.8 14.9,221 c -1,-4.8 -3.3,-20.7 -3.4,-22.6 0.2,-0.2 -0.7,-10 -0.9,-13.9 0.8,-2.3 0,-11.5 0.1,-14.1 z m 30.1,-60.1 c -4.1,1.1 -4,5.1 -5.5,8 -6.1,14.8 -9.8,30.1 -11.7,46 -2,16.2 -0.3,32.6 2.1,48.4 2.6,16.7 11.2,31.8 20.7,45.9 4.2,10.3 13.2,17.2 18.7,26.7 1.1,1.9 3.1,3.7 5.1,4.6 4.1,1.8 7,5 10.5,7.5 9.1,6.6 18.3,13.1 27.5,19.5 6.4,4.5 14.1,5.5 21.3,8 12.3,4.3 24.6,8.3 37.7,10.1 13.2,1.8 26.3,3.4 39.6,3.4 244.3,0 488.7,0 733,0 14.3,0 28.5,0 42.8,-1.5 24.8,-2.5 48.2,-9.8 70.1,-21.2 21.3,-11.2 40.1,-26.2 54.6,-45.8 11.2,-15 20.3,-31.1 24.1,-49.7 0.4,-1.7 0.7,-3.4 1.1,-5.1 0.9,-0.7 1.2,-1.7 1,-2.8 4.4,-17.2 5,-34.4 3,-52 -2.2,-19.4 -8.3,-37.4 -17.7,-54.2 -5.6,-10.1 -11.7,-19.9 -20.4,-27.7 -1.7,-2 -3.2,-4.3 -5.1,-6.1 -29.4,-28.6 -122.5,-53 -127,-52.3 -3,0.5 -769,-1.1 -772,0 -4.5,0.2 -9.1,0.4 -13.6,0.6 q -2.9,0 -8.2,1.6 C 127.9,28.9 88.9,47.3 58.7,81.9 51.4,90.3 43.9,98.9 40.8,110.2 H 41 Z"
           id="path45495" />
        <path
           class="cls-4"
           d="m 11.4,196.4 c 0.3,0.5 0.5,1.9 0.3,2.1 -0.1,-0.7 -0.2,-1.4 -0.3,-2.1 z"
           id="path45497" />
        <path
           class="cls-3"
           d="m 1132.9,215.2 c -0.4,1.7 -0.7,3.4 -1.1,5.1 -5,1.4 -5.6,6.4 -7.3,10.1 -6.7,15.2 -17.4,27.7 -29,38.9 -16.5,16 -35.8,28.1 -57.1,37.4 -27,11.7 -55.2,17.4 -84.1,17.5 -248.1,0.4 -496.1,0.2 -744.2,0.3 -11.3,0 -22.5,-1.9 -33.7,-2.7 -6.7,-0.5 -13.8,-0.7 -20.6,-2.7 -10.6,-3 -20.9,-6.4 -31,-10.7 C 98.3,297.1 73.1,284.1 53.6,262 51.8,260 49.8,258.2 46.7,258.8 37.1,244.7 28.6,229.6 26,212.9 23.5,197 21.9,180.7 23.9,164.5 c 1.9,-15.8 5.6,-31.2 11.7,-46 4.4,-0.9 5.3,-4.2 5.5,-8 0,0 -0.2,-0.1 -0.2,-0.1 3.2,0.7 4.6,-1.5 6.4,-3.7 4.7,-5.8 9.6,-11.4 14.9,-17.6 0.6,1.9 0.8,2.5 0.9,3.1 1.4,8.7 4.6,10.3 11.6,5.5 1.4,-0.9 2.6,-2.1 3.7,-3.3 6.8,-7.3 5.4,-11.4 -4.7,-14.1 -0.8,-0.2 -1.2,-0.6 -0.8,-1.9 2.2,-3.3 5.5,-6.1 8.8,-8.8 2.1,-1.7 4.2,-2.9 6.5,0.6 4.1,6.4 10.1,5.4 16,2.9 9.2,-4 17.6,-9.4 25.2,-15.9 4.3,-3.6 9.8,-7 11.1,-12.5 1.2,-5 4,-6.6 7.9,-7.5 19.7,-4.4 39.6,-8.5 59.9,-8.5 252.6,-0.1 505.2,0 757.7,-0.3 12.1,0 23.7,1.4 35.4,4.2 31.8,7.5 60.9,20.6 86.9,40.5 3,2.3 5.9,5.5 10.4,5.3 8.7,7.8 14.9,17.7 20.4,27.7 9.3,16.9 15.4,34.8 17.7,54.2 2,17.7 1.4,34.9 -3,52 -0.9,0.7 -1.3,1.7 -1,2.8 z"
           id="path45499" />
        <path
           class="cls-4"
           d="m 46.8,258.6 c 3.1,-0.6 5.1,1.2 6.9,3.2 19.4,22.1 44.7,35.2 71.2,46.4 10.1,4.3 20.5,7.7 31,10.7 6.8,1.9 13.9,2.2 20.6,2.7 11.2,0.8 22.4,2.7 33.7,2.7 248.1,-0.1 496.1,0.1 744.2,-0.3 28.9,0 57.1,-5.8 84.1,-17.5 21.4,-9.2 40.7,-21.3 57.1,-37.4 11.6,-11.3 22.2,-23.7 29,-38.9 1.6,-3.7 2.2,-8.6 7.3,-10.1 -3.8,18.6 -12.9,34.7 -24.1,49.7 -14.5,19.5 -33.3,34.6 -54.6,45.8 -21.8,11.4 -45.2,18.7 -70.1,21.2 -14.3,1.5 -28.5,1.5 -42.8,1.5 -244.3,0 -488.7,0 -733,0 -13.3,0 -26.4,-1.6 -39.6,-3.4 -13.1,-1.8 -25.4,-5.8 -37.7,-10.1 -7.1,-2.5 -14.9,-3.6 -21.3,-8 -9.2,-6.4 -18.4,-12.9 -27.5,-19.5 -3.5,-2.5 -6.5,-5.7 -10.5,-7.5 -2,-0.9 -4,-2.7 -5.1,-4.6 -5.5,-9.4 -14.4,-16.4 -18.7,-26.7 z"
           id="path45501" />
        <path
           class="cls-1"
           d="m 1098.8,78.3 c -4.5,0.3 -7.4,-2.9 -10.4,-5.3 -26,-19.9 -55,-33.1 -86.9,-40.5 -11.7,-2.7 -23.3,-4.2 -35.4,-4.2 -252.6,0.2 -505.2,0.1 -757.7,0.3 -20.3,0 -40.1,4.1 -59.9,8.5 -3.9,0.9 -6.7,2.5 -7.9,7.5 -1.3,5.5 -6.8,8.9 -11.1,12.5 -7.6,6.4 -16,11.9 -25.2,15.9 -5.9,2.6 -11.8,3.5 -16,-2.9 -2.3,-3.5 -4.4,-2.3 -6.5,-0.6 -3.3,2.7 -6.6,5.5 -8.8,8.8 -0.4,1.2 0,1.6 0.8,1.9 10.1,2.7 11.5,6.8 4.7,14.1 -1.1,1.2 -2.4,2.4 -3.7,3.3 -6.9,4.8 -10.2,3.2 -11.6,-5.5 C 63.1,91.5 62.8,90.8 62.3,89 57,95.2 52.1,100.8 47.4,106.6 45.7,108.7 44.3,111 41,110.3 44.1,99.1 51.5,90.4 58.9,82 89.1,47.4 128.1,29 173,22.3 c 0,0 5.1,-1.7 8.2,-1.6 4.5,-0.2 9.1,-0.4 13.6,-0.6 3.7,0.1 7.3,-0.6 11,-0.6 250,0 500,0 750.1,0 3.7,0 7.3,0.7 11,0.6 4.5,0.2 9.1,0.4 13.6,0.6 31.2,3.4 84,23.1 113.3,51.7 1.9,1.8 3.4,4.1 5.1,6.1 z"
           id="path45503" />
        <path
           class="cls-1"
           d="m 41.2,110.3 c -0.2,3.8 -1.1,7.1 -5.5,8 1.5,-2.9 1.4,-6.9 5.5,-8 z"
           id="path45505" />
        <path
           class="cls-4"
           d="m 1132.9,215.2 c -0.3,-1.2 0,-2.1 1,-2.8 0.2,1.1 -0.2,2.1 -1,2.8 z"
           id="path45507" />
      </g>
    </g>
    <text
       xml:space="preserve"
       style="font-size:256.056px;line-height:1.25;font-family:Chilanka;-inkscape-font-specification:Chilanka;fill:#ffffff;fill-opacity:1;stroke-width:5.33451;filter:url(#filter60997)"
       x="193.26941"
       y="329.65726"
       id="text48537"><tspan
         sodipodi:role="line"
         id="tspan48535"
         x="193.26941"
         y="329.65726"
         style="font-style:normal;font-variant:normal;font-weight:normal;font-stretch:normal;font-size:256.056px;font-family:'Fredoka SemiExpanded';-inkscape-font-specification:'Fredoka SemiExpanded, ';fill:#ffffff;fill-opacity:1;stroke-width:5.33451">Créditos</tspan></text>
  </g>
</svg>
