<?xml version="1.0" encoding="UTF-8" standalone="no"?>
<!-- Created with Inkscape (http://www.inkscape.org/) -->

<svg
   width="1162.9799"
   height="374.60001"
   viewBox="0 0 307.70508 99.112921"
   version="1.1"
   id="svg4396"
   inkscape:export-filename="/home/clau/Documentos/Juegos Terva/Assets Códice Matemático/btn_jugar.png"
   inkscape:export-xdpi="119.2"
   inkscape:export-ydpi="119.2"
   inkscape:version="1.1.2 (0a00cf5339, 2022-02-04)"
   sodipodi:docname="btn_check.svg"
   xmlns:inkscape="http://www.inkscape.org/namespaces/inkscape"
   xmlns:sodipodi="http://sodipodi.sourceforge.net/DTD/sodipodi-0.dtd"
   xmlns="http://www.w3.org/2000/svg"
   xmlns:svg="http://www.w3.org/2000/svg">
  <sodipodi:namedview
     id="namedview4398"
     pagecolor="#ffffff"
     bordercolor="#666666"
     borderopacity="1.0"
     inkscape:pageshadow="2"
     inkscape:pageopacity="0.0"
     inkscape:pagecheckerboard="0"
     inkscape:document-units="px"
     showgrid="false"
     units="px"
     fit-margin-top="1"
     lock-margins="true"
     fit-margin-left="1"
     fit-margin-right="1"
     fit-margin-bottom="1"
     inkscape:zoom="0.55207573"
     inkscape:cx="581.44197"
     inkscape:cy="187.47428"
     inkscape:window-width="1920"
     inkscape:window-height="1012"
     inkscape:window-x="0"
     inkscape:window-y="0"
     inkscape:window-maximized="1"
     inkscape:current-layer="layer2" />
  <defs
     id="defs4393">
    <style
       id="style4616">
      .cls-1 {
        fill: #e86e00;
      }

      .cls-2 {
        fill: #5e697e;
      }

      .cls-3 {
        fill: #c94300;
      }

      .cls-4 {
        fill: #333840;
        opacity: .5;
      }

      .cls-5 {
        fill: #f9923e;
      }
    </style>
    <filter
       style="color-interpolation-filters:sRGB;"
       inkscape:label="Drop Shadow"
       id="filter23728"
       x="-0.018636884"
       y="-0.1022266"
       width="1.0389527"
       height="1.1665804">
      <feFlood
         flood-opacity="0.498039"
         flood-color="rgb(0,0,0)"
         result="flood"
         id="feFlood23718" />
      <feComposite
         in="flood"
         in2="SourceGraphic"
         operator="in"
         result="composite1"
         id="feComposite23720" />
      <feGaussianBlur
         in="composite1"
         stdDeviation="1.94134"
         result="blur"
         id="feGaussianBlur23722" />
      <feOffset
         dx="0.419732"
         dy="-2.74199"
         result="offset"
         id="feOffset23724" />
      <feComposite
         in="SourceGraphic"
         in2="offset"
         operator="over"
         result="composite2"
         id="feComposite23726" />
    </filter>
  </defs>
  <g
     inkscape:label="Capa 1"
     inkscape:groupmode="layer"
     id="layer1"
     transform="translate(50.565675,-98.943543)"
     style="display:inline"
     sodipodi:insensitive="true">
    <g
       id="g4632"
       transform="matrix(0.26458333,0,0,0.26458333,-50.30974,99.208126)">
      <path
         class="cls-4"
         d="m 578.9,372.6 c -158.1,0 -316.3,0 -474.4,0 -26,0 -51.9,0 -77.9,-0.2 -5.6,0 -9.9,-3.3 -14.1,-6.7 C 2.2,357.4 -0.3,346.4 0.1,334 1.4,294.3 0.3,254.6 0.6,214.9 0.6,204 -0.2,193 0.1,182.1 1.2,137.9 0.5,93.7 0.6,49.6 0.6,40.7 -0.7,31.7 1.8,22.9 5.4,9.6 16.9,0.5 30.7,0.4 61.3,0.2 92,0 122.6,0 c 141,0 282,0 423,0 174.3,0 348.6,0 522.9,0.2 20.3,0 40.6,0.8 60.9,0 13,-0.5 29.2,13.1 30.6,26.1 1.6,14.9 0.6,29.8 0.7,44.7 0.2,86.6 0.2,173.2 0.3,259.7 0,9.1 0.5,18.3 -4.8,26.2 -6.5,9.8 -15.2,15.7 -27.8,15.7 -159.3,-0.1 -318.6,0 -477.9,0 -23.8,0 -47.6,0 -71.4,0 v 0 z m 0.9,-6.9 c 182,0 363.9,0 545.9,0 16.7,0 28,-12.5 28,-27.9 0,-99.1 0,-198.1 0,-297.2 0,-4.4 0,-8.8 -0.9,-13.2 C 1151,17.7 1139.9,7.8 1130.3,7.7 1100.6,7.3 1070.8,7.1 1041.1,7 939.1,6.3 837,6.7 735,6.7 629.3,6.7 523.6,6.8 417.9,6.8 328.4,6.8 238.8,6.7 149.3,6.8 131.7,6.8 114.2,6.8 96.6,7.5 75,8.4 53.3,7.7 31.7,7.8 c -1.6,0 -3.2,0 -4.8,0.5 -14.3,4 -19.7,17 -19.8,29.3 -0.1,9.8 0.8,19.7 0.9,29.5 0.1,14.1 0,28.3 -0.1,42.4 0,23.5 0.3,47 -0.9,70.5 -0.3,6.8 1.2,13.4 1.1,20.2 -0.2,18.6 -0.2,37.2 -0.2,55.8 0,10.5 0.1,21.1 0.2,31.6 0,7.8 0.4,15.6 -0.1,23.4 -0.6,10.6 -1.7,21.1 0.2,31.6 2.2,11.6 8.2,19 20.2,22 8.3,2.1 16.8,0.9 25.1,0.9 175.5,0.1 350.9,0 526.4,0 z"
         id="path4620" />
      <path
         d="m 579.8,365.7 c -175.5,0 -350.9,0 -526.4,0 -8.4,0 -16.8,1.2 -25.1,-0.9 -11.9,-3 -18,-10.4 -20.2,-22 -2,-10.4 -0.9,-21 -0.2,-31.6 C 8.4,303.4 8,295.6 8,287.8 8,277.3 7.8,266.7 7.8,256.2 7.8,237.6 7.8,219 8,200.4 8,193.6 6.6,187 6.9,180.2 8.1,156.7 7.7,133.2 7.8,109.7 7.8,95.6 8,81.4 7.9,67.3 7.9,57.4 6.9,47.6 7,37.8 7.1,25.5 12.6,12.5 26.8,8.5 28.5,8 30,8 31.6,8 53.2,8 74.9,8.7 96.5,7.7 114.1,6.9 131.6,7 149.2,7 c 89.5,0 179.1,0 268.6,0 105.7,0 211.4,0 317.1,-0.1 102,0 204.1,-0.4 306.1,0.3 29.7,0.2 59.4,0.4 89.2,0.7 9.7,0.1 20.7,10.1 22.5,19.7 0.8,4.4 0.9,8.8 0.9,13.2 0,99.1 0,198.1 0,297.2 0,15.4 -11.3,27.9 -28,27.9 -182,0 -363.9,0 -545.9,0 z M 25,24.7 c -0.4,0.3 -0.7,0.6 -1.1,0.9 -1.7,2.2 -3,4.5 -3,7.5 0.2,29.7 0.2,59.4 0.3,89.1 0,1.8 -0.3,3.6 -0.3,5.4 0,22.3 0,44.7 0,67 0,18.4 0.2,36.8 0.3,55.3 -0.1,30.1 -0.3,60.1 -0.3,90.2 0,5.7 5.7,11.7 10.9,11.5 14.6,-0.5 29.2,1.2 43.8,0.9 5.5,-0.1 11,-0.7 16.4,-0.7 218.5,0 437.1,-0.3 655.6,0 113.7,0.1 227.3,-1.1 341,0.6 12.1,0.2 24.2,-1.3 36.3,-0.6 11,0.7 15.6,-7.2 15.6,-16 0,-14.2 -1.4,-28.3 -1,-42.6 0.3,-11.8 0,-23.6 -0.2,-35.4 0,-33.8 0.2,-67.6 0.2,-101.4 0,-10.8 -0.1,-21.5 -0.2,-32.3 0,-3.7 0.2,-7.3 0.2,-11 0,-20.1 0,-40.2 0,-60.3 0,-5.8 0.5,-11.7 1,-17.5 0.6,-6.7 -6.8,-15.1 -13.6,-14.9 -13.8,0.4 -27.6,0.1 -41.4,0.1 -338.9,0 -677.8,0 -1016.7,0 -11.6,0 -23.3,0.2 -34.9,0.4 -3.9,-1 -7,0.1 -9.1,3.7 v 0 z"
         id="path4622" />
      <path
         class="cls-1"
         d="M 21.3,250 C 21.2,231.6 21,213.2 21,194.7 c 0,-22.3 0,-44.7 0,-67 0,-1.8 0.2,-3.6 0.3,-5.4 1.6,-0.1 1.6,-1.3 1.7,-2.5 1,-12.2 1.8,-24.4 3,-36.6 1.4,-14.4 4.7,-28.4 8.7,-42.2 0.6,-1.9 1.5,-3.5 3.4,-3.9 5.6,-1.3 11,-3.5 17,-3.6 164.2,-0.5 328.5,0.7 492.7,-0.6 93.5,-0.7 187.1,-0.1 280.6,-0.1 97.9,0 195.7,0 293.6,-0.1 7.5,0 9.5,1.5 10.9,8.6 2,9.9 1.9,20.1 2.8,30.1 1.1,12.5 1.1,25.2 2.4,37.7 0.5,5.1 -0.3,10.3 1.5,15.2 0,10.8 0.2,21.5 0.2,32.3 0,33.8 -0.1,67.6 -0.2,101.4 -0.8,0.2 -1.6,0.6 -1.7,1.6 -0.7,6.7 -1.6,13.4 -2,20.2 -0.8,14.5 -2.7,28.8 -6.9,42.9 -2.8,9.5 -14.3,17.4 -23.9,17.4 -321.4,-0.3 -642.8,-0.1 -964.1,-0.4 -25.3,0 -50.6,1.7 -75.9,-1.2 -8.1,-0.9 -16.3,-1.4 -24.4,-2.7 -7.3,-1.2 -8.3,-2.4 -9.7,-9.7 -4.6,-23.7 -6.1,-47.8 -7,-71.9 0,-1.9 0.5,-4.2 -2.7,-4.2 z"
         id="path4624" />
      <path
         class="cls-5"
         d="m 1139.5,124.3 c -1.7,-4.9 -0.9,-10.2 -1.5,-15.2 -1.3,-12.5 -1.3,-25.1 -2.4,-37.7 -0.9,-10 -0.8,-20.2 -2.8,-30.1 -1.4,-7.1 -3.5,-8.6 -10.9,-8.6 -97.9,0 -195.7,0.1 -293.6,0.1 -93.5,0 -187.1,-0.6 -280.6,0.1 C 383.5,34.1 219.2,33 55,33.5 c -5.9,0 -11.3,2.3 -17,3.6 -1.9,0.4 -2.8,2 -3.4,3.9 -4.1,13.8 -7.3,27.8 -8.7,42.2 -1.2,12.2 -2,24.4 -3,36.6 0,1.2 0,2.4 -1.7,2.5 0,-29.7 -0.2,-59.4 -0.3,-89.1 0,-3 1.3,-5.3 3,-7.5 0.4,-0.3 0.7,-0.6 1.1,-0.9 v 0 C 27.9,20 31.4,20.6 34.1,21.1 45.7,21 57.4,20.7 69,20.7 c 338.9,0 677.8,0 1016.7,0 13.8,0 27.6,0.3 41.4,-0.1 6.8,-0.2 14.2,8.2 13.6,14.9 -0.5,5.8 -0.9,11.7 -1,17.5 -0.1,20.1 0,40.2 0,60.3 0,3.7 -0.1,7.3 -0.2,11 z"
         id="path4626" />
      <path
         class="cls-3"
         d="m 21.3,250 c 3.2,0 2.6,2.3 2.7,4.2 0.9,24.1 2.4,48.1 7,71.9 1.4,7.3 2.4,8.5 9.7,9.7 8.1,1.3 16.3,1.7 24.4,2.7 25.3,2.9 50.6,1.2 75.9,1.2 321.4,0.2 642.8,0.1 964.1,0.4 9.6,0 21.1,-7.9 23.9,-17.4 4.2,-14.1 6.1,-28.4 6.9,-42.9 0.4,-6.7 1.3,-13.5 2,-20.2 0.1,-1 0.8,-1.4 1.7,-1.6 0,11.8 0.4,23.6 0.2,35.4 -0.3,14.2 1,28.4 1,42.6 0,8.9 -4.6,16.7 -15.6,16 -12.1,-0.8 -24.2,0.8 -36.3,0.6 -113.7,-1.8 -227.3,-0.5 -341,-0.6 -218.5,-0.3 -437.1,0 -655.6,0 -5.5,0 -11,0.6 -16.4,0.7 -14.6,0.3 -29.2,-1.4 -43.8,-0.9 -5.3,0.2 -10.9,-5.8 -10.9,-11.5 0,-30.1 0.2,-60.1 0.3,-90.2 z"
         id="path4628" />
      <path
         class="cls-2"
         d="M 25,24.7 C 24.6,25 24.3,25.3 23.9,25.6 24.3,25.3 24.6,25 25,24.7 Z"
         id="path4630" />
    </g>
  </g>
  <g
     inkscape:groupmode="layer"
     id="layer2"
     inkscape:label="Capa 2">
    <text
       xml:space="preserve"
       style="font-size:80px;line-height:0;font-family:Chilanka;-inkscape-font-specification:Chilanka;stroke-width:0.264583;filter:url(#filter23728)"
       x="26.802814"
       y="69.927452"
       id="text12224"><tspan
         sodipodi:role="line"
         id="tspan12222"
         style="font-style:normal;font-variant:normal;font-weight:normal;font-stretch:normal;font-size:80px;font-family:'Fredoka SemiExpanded';-inkscape-font-specification:'Fredoka SemiExpanded, ';fill:#ffffff;fill-opacity:1;stroke-width:0.264583"
         x="26.802814"
         y="69.927452">Jugar</tspan></text>
  </g>
</svg>
