<?xml version="1.0" encoding="UTF-8" standalone="no"?>
<!-- Created with Inkscape (http://www.inkscape.org/) -->

<svg
   width="1571.3231"
   height="119.20786"
   viewBox="0 0 415.7459 31.540415"
   version="1.1"
   id="svg901"
   inkscape:version="1.1.2 (0a00cf5339, 2022-02-04)"
   sodipodi:docname="titulo.svg"
   xmlns:inkscape="http://www.inkscape.org/namespaces/inkscape"
   xmlns:sodipodi="http://sodipodi.sourceforge.net/DTD/sodipodi-0.dtd"
   xmlns="http://www.w3.org/2000/svg"
   xmlns:svg="http://www.w3.org/2000/svg">
  <sodipodi:namedview
     id="namedview903"
     pagecolor="#ffffff"
     bordercolor="#666666"
     borderopacity="1.0"
     inkscape:pageshadow="2"
     inkscape:pageopacity="0.0"
     inkscape:pagecheckerboard="0"
     inkscape:document-units="px"
     showgrid="false"
     units="px"
     width="1920px"
     inkscape:zoom="0.19881183"
     inkscape:cx="784.66156"
     inkscape:cy="60.358581"
     inkscape:window-width="1366"
     inkscape:window-height="713"
     inkscape:window-x="0"
     inkscape:window-y="27"
     inkscape:window-maximized="1"
     inkscape:current-layer="layer1"
     lock-margins="true"
     fit-margin-top="1"
     fit-margin-left="1"
     fit-margin-right="1"
     fit-margin-bottom="1" />
  <defs
     id="defs898" />
  <g
     inkscape:label="Capa 1"
     inkscape:groupmode="layer"
     id="layer1"
     transform="translate(-39.511713,-23.49153)">
    <g
       aria-label="Código Matemático"
       id="text1669"
       style="font-size:37.0417px;fill:#ffffff;stroke:#5a4870;stroke-width:3.96875;stroke-linecap:round;stroke-linejoin:round;paint-order:markers stroke fill">
      <g
         id="path27833">
        <path
           style="color:#000000;-inkscape-font-specification:CHUCKLESOME;fill:#5a4870;stroke:none;stroke-linecap:butt;stroke-linejoin:miter;-inkscape-stroke:none"
           d="m 58.050781,23.837891 c -3.124456,0.0516 -6.15839,0.329752 -9.095703,0.839843 -2.969231,0.494872 -4.98252,0.853035 -6.398437,2.595703 a 1.9845734,1.9845734 0 0 0 -0.0098,0.01172 c -1.104654,1.380817 -1.623773,3.182164 -2.070313,5.625 a 1.9845734,1.9845734 0 0 0 -0.002,0.01563 c -0.413517,2.377712 -0.644053,4.849058 -0.695312,7.41211 a 1.9845734,1.9845734 0 0 0 -0.002,0.01953 c -0.02608,2.607602 0.221655,5.097206 0.751953,7.457031 a 1.9845734,1.9845734 0 0 0 0.0059,0.02539 c 0.574499,2.407423 1.39557,4.31674 3.136719,5.40625 1.948978,1.227028 4.489372,1.411862 8.386719,1.488281 3.869728,0.09997 7.645563,-0.02654 11.326172,-0.378906 3.64501,-0.324556 6.130823,-0.656412 7.802734,-1.140625 0.703036,-0.185954 1.582143,-0.480459 2.097656,-1.580078 0.341899,-0.71051 0.375495,-1.5029 0.236328,-2.152344 a 1.9845734,1.9845734 0 0 0 -0.0098,-0.04492 l -0.371094,-1.554688 a 1.9845734,1.9845734 0 0 0 -0.0098,-0.04297 c -0.292555,-1.11703 -0.663198,-2.239928 -1.109375,-3.369141 -0.238059,-0.61529 -0.472871,-1.132767 -0.783203,-1.613281 -0.311843,-0.482855 -0.673096,-1.065361 -1.667969,-1.34961 a 1.9845734,1.9845734 0 0 0 -0.02344,-0.0059 c -0.777241,-0.211976 -0.757122,-0.09515 -1.080078,-0.08789 -0.322957,0.0073 -0.719641,0.02672 -1.216797,0.05859 -0.994311,0.06374 -2.380357,0.174618 -4.179688,0.335938 -1.752459,0.144791 -3.155032,0.218919 -4.167968,0.224609 -1.015776,0.0057 -1.729908,-0.128068 -1.621094,-0.0918 0.356596,0.118865 0.09538,0.160082 -0.134766,-0.845703 v -0.002 c -0.251819,-1.1341 -0.326585,-2.278959 -0.220703,-3.464844 0.09067,-1.015497 0.263487,-1.365503 0.291016,-1.488281 0.204878,-0.03067 0.404557,-0.0684 0.808594,-0.07617 1.181181,-0.02271 2.434036,0.04642 3.757812,0.208984 a 1.9845734,1.9845734 0 0 0 0.03711,0.0039 c 1.481431,0.153252 2.894023,0.243643 4.240235,0.269531 0.706844,0.01359 1.301781,-0.0047 1.861328,-0.08594 0.472197,-0.06854 0.97656,-0.171717 1.5625,-0.621093 0.540175,-0.359375 0.769111,-0.710195 0.929687,-1.00586 0.178399,-0.328479 0.30766,-0.652463 0.4375,-1.023437 0.259682,-0.741948 0.506843,-1.667253 0.775391,-2.84375 a 1.9845734,1.9845734 0 0 0 0,-0.0039 c 0.266793,-1.181511 0.452772,-2.138797 0.558594,-2.921875 0.105821,-0.783079 0.291318,-1.217842 -0.05469,-2.25586 a 1.9845734,1.9845734 0 0 0 -0.07031,-0.177734 c -0.316994,-0.713234 -0.729468,-0.897112 -0.97461,-1.027344 -0.245141,-0.130231 -0.420912,-0.184155 -0.589843,-0.232422 -0.337863,-0.09653 -0.648071,-0.146998 -1.021485,-0.197265 -0.746828,-0.100536 -1.71675,-0.175096 -2.980468,-0.238282 -2.53007,-0.126501 -5.341707,-0.149258 -8.44336,-0.07422 z m 0.08008,3.966796 a 1.9845734,1.9845734 0 0 0 0.01563,0 c 3.022569,-0.07313 5.741573,-0.04817 8.150391,0.07227 0.845586,0.04228 1.330313,0.09396 1.857422,0.144531 -0.09111,0.561211 -0.196637,1.17272 -0.398438,2.066407 -0.249534,1.092603 -0.478214,1.920177 -0.65039,2.412109 -0.0084,0.02413 -0.0094,0.02047 -0.01758,0.04297 -0.234784,0.02081 -0.499197,0.04385 -0.951172,0.03516 -1.22201,-0.0235 -2.52508,-0.104964 -3.908203,-0.248047 l 0.03711,0.0039 c -1.491391,-0.183153 -2.929367,-0.263002 -4.316406,-0.236328 -0.729827,0.01403 -1.357142,0.06539 -1.966797,0.212891 -0.603986,0.146125 -1.302231,0.349729 -1.888672,1.15625 -0.82695,1.114257 -0.984682,2.28079 -1.121094,3.808594 -0.141002,1.579226 -0.04168,3.149364 0.298828,4.68164 a 1.9845734,1.9845734 0 0 0 0.002,0.0078 c 0.361775,1.597835 1.060264,3.176338 2.751954,3.740234 0.923731,0.307911 1.716407,0.303515 2.898437,0.296875 1.18203,-0.0066 2.664981,-0.08755 4.486328,-0.238281 a 1.9845734,1.9845734 0 0 0 0.01367,-0.002 c 1.781363,-0.159709 3.148223,-0.268391 4.080078,-0.328125 0.258466,-0.01657 0.395526,-0.02047 0.583985,-0.0293 0.07801,0.158572 0.133116,0.241824 0.234375,0.503906 a 1.9845734,1.9845734 0 0 0 0.0059,0.01563 c 0.390817,0.988537 0.709215,1.958487 0.958984,2.910156 0.001,0.0038 0.0029,0.0079 0.0039,0.01172 l 0.154296,0.648438 c -1.184474,0.287754 -3.186601,0.621 -6.412109,0.908203 a 1.9845734,1.9845734 0 0 0 -0.01367,0.002 c -3.521523,0.33768 -7.144493,0.458122 -10.871094,0.361328 a 1.9845734,1.9845734 0 0 0 -0.01172,0 c -3.656844,-0.0717 -6.031057,-0.675617 -6.353516,-0.878906 a 1.9845734,1.9845734 0 0 0 -0.0059,-0.0039 c -0.232027,-0.145016 -0.914609,-1.026012 -1.376953,-2.951171 -0.455132,-2.029624 -0.676813,-4.200246 -0.654297,-6.523438 0.04786,-2.369459 0.263296,-4.634162 0.638672,-6.794922 0.392064,-2.135152 0.9794,-3.488643 1.257812,-3.839844 -0.121774,0.155232 1.311908,-0.737531 3.964844,-1.179687 a 1.9845734,1.9845734 0 0 0 0.01367,-0.0039 c 2.733201,-0.47534 5.569809,-0.737353 8.509765,-0.785157 z"
           id="path27868" />
        <path
           style="color:#000000;-inkscape-font-specification:CHUCKLESOME;stroke:none;stroke-linecap:butt;stroke-linejoin:miter;-inkscape-stroke:none"
           d="m 70.247502,26.413413 q 0.22225,0.666751 -0.555626,4.111629 -0.777875,3.407836 -1.296459,3.704169 -0.370417,0.370417 -2.296586,0.333376 -1.926168,-0.03704 -4.074586,-0.259292 -2.111377,-0.259292 -4.037545,-0.22225 -1.926169,0.03704 -2.296586,0.555625 -0.555625,0.740834 -0.740834,2.815169 -0.185208,2.074335 0.259292,4.074587 0.444501,1.96321 1.444626,2.296585 1.222376,0.407459 6.593423,-0.03704 5.371046,-0.481543 5.778505,-0.370417 0.518583,0.148166 1.148292,1.778001 0.629709,1.592793 1.037168,3.148544 l 0.370417,1.555752 q 0.111125,0.518584 -0.07408,0.889001 -0.148166,0.333375 -0.851959,0.518583 -2.037293,0.592668 -7.445381,1.07421 -5.408088,0.518583 -11.11251,0.370417 -5.667379,-0.111125 -7.371298,-1.185335 -1.481667,-0.926042 -2.259543,-4.185712 -0.740834,-3.296711 -0.703792,-7.000881 0.07408,-3.70417 0.66675,-7.112006 0.629709,-3.444878 1.666877,-4.741337 0.963084,-1.185335 5.185837,-1.889127 4.259796,-0.740834 8.815925,-0.814917 4.59317,-0.111125 8.29734,0.07408 3.70417,0.185209 3.852337,0.518584 z"
           id="path27870" />
      </g>
      <g
         id="path27835">
        <path
           style="color:#000000;-inkscape-font-specification:CHUCKLESOME;fill:#5a4870;stroke:none;stroke-linecap:butt;stroke-linejoin:miter;-inkscape-stroke:none"
           d="m 80.417969,24.058594 c -1.914587,0.05038 -3.43892,0.143125 -4.63086,0.292968 -1.171389,0.147261 -1.909937,0.109309 -2.970703,0.917969 -0.726953,0.53398 -0.889885,1.055233 -1.05664,1.529297 -0.16977,0.482633 -0.278995,0.986874 -0.376954,1.578125 -0.195916,1.182503 -0.325654,2.70542 -0.414062,4.650391 a 1.9845734,1.9845734 0 0 0 0,0.01367 c -0.1505,3.862773 -0.124547,7.713981 0.07617,11.552734 0.10036,1.91939 0.220265,3.427705 0.375,4.578125 0.07737,0.57521 0.16072,1.05781 0.273437,1.498047 0.112718,0.440237 0.152775,0.81497 0.660157,1.423828 a 1.9845734,1.9845734 0 0 0 0.0098,0.01172 c 0.467917,0.552992 0.840309,0.665026 1.181641,0.798828 0.341332,0.133802 0.677708,0.225495 1.058594,0.310547 0.761771,0.170104 1.697361,0.305589 2.875,0.433593 a 1.9845734,1.9845734 0 0 0 0.002,0 c 2.356794,0.253419 4.891144,0.416844 7.603515,0.492188 2.72545,0.07571 5.309448,0.02583 7.753907,-0.152344 1.257321,-0.09073 2.28977,-0.218538 3.162109,-0.414062 0.872339,-0.195525 1.606054,-0.336522 2.394531,-1.125 1.036407,-1.036407 1.049636,-1.913254 1.257813,-3.148438 0.207661,-1.23212 0.343083,-2.792383 0.431636,-4.746094 0.20072,-3.913951 0.21321,-7.733753 0.0371,-11.457031 l 0.002,0.01367 c -0.0751,-1.864969 -0.168937,-3.319558 -0.289066,-4.414062 -0.06006,-0.547252 -0.12394,-1.001245 -0.21289,-1.41211 -0.08895,-0.410864 -0.04821,-0.721401 -0.597657,-1.408203 C 98.362294,25.050524 97.928617,25.075696 97.5,24.949219 97.071383,24.822742 96.618064,24.736387 96.074219,24.654297 94.986528,24.490117 93.552035,24.361126 91.705078,24.248047 88.015183,24.022134 84.253639,23.958366 80.419922,24.058594 a 1.9845734,1.9845734 0 0 0 -0.002,0 z m 0.105468,3.96875 c 3.722783,-0.09733 7.369184,-0.03695 10.939454,0.18164 1.783126,0.109171 3.144013,0.238941 4.019531,0.371094 0.164435,0.02482 0.208159,0.0421 0.335937,0.06641 0.02455,0.165816 0.04573,0.260362 0.07031,0.484375 0.102121,0.930441 0.194511,2.326123 0.267578,4.140625 a 1.9845734,1.9845734 0 0 0 0.002,0.01367 c 0.169621,3.586277 0.157285,7.275692 -0.03711,11.066406 a 1.9845734,1.9845734 0 0 0 0,0.01172 c -0.08432,1.867103 -0.220573,3.316675 -0.382813,4.279297 -0.07987,0.473909 -0.227682,0.830513 -0.304687,1.021484 -0.01374,-0.0081 0.068,-0.04403 -0.302735,0.03906 -0.559938,0.125504 -1.440085,0.244045 -2.578125,0.326172 a 1.9845734,1.9845734 0 0 0 -0.002,0 c -2.296329,0.167441 -4.749559,0.216972 -7.357422,0.144531 -2.620229,-0.07278 -5.049771,-0.23045 -7.285156,-0.470703 h -0.0039 c -1.086465,-0.118214 -1.91593,-0.246073 -2.425781,-0.359375 -0.04068,-0.20294 -0.08155,-0.378134 -0.125,-0.701172 -0.129252,-0.960954 -0.248508,-2.397 -0.345704,-4.255859 -0.194154,-3.713205 -0.219462,-7.439224 -0.07422,-11.177735 0.08445,-1.857971 0.21543,-3.279416 0.365234,-4.183593 0.0434,-0.261974 0.07852,-0.363514 0.119141,-0.527344 0.225911,-0.0714 0.482791,-0.160906 0.865234,-0.208985 0.968824,-0.121794 2.401266,-0.213324 4.240234,-0.261718 z m 5.773438,4.439453 c -1.065878,-0.02568 -1.924401,-0.0146 -2.638672,0.04492 -0.714271,0.05952 -1.179132,-0.10108 -2.173828,0.664062 a 1.9845734,1.9845734 0 0 0 -0.125,0.103516 c -0.779922,0.709019 -0.6973,1.100497 -0.779297,1.474609 -0.082,0.374113 -0.125076,0.747438 -0.160156,1.189453 -0.07016,0.884031 -0.09465,2.0244 -0.08203,3.488282 0.01254,1.44266 0.04649,2.56883 0.107421,3.421875 0.03047,0.426522 0.06668,0.781547 0.123047,1.115234 0.05637,0.333687 -0.04487,0.556226 0.482422,1.28125 a 1.9845734,1.9845734 0 0 0 0.05664,0.07227 c 0.544484,0.680604 0.945654,0.719861 1.271484,0.822265 0.325831,0.102404 0.624575,0.157615 0.962891,0.207031 0.676632,0.09883 1.497445,0.156807 2.537109,0.195313 a 1.9845734,1.9845734 0 0 0 0.02539,0 c 1.054465,0.02604 1.911788,0.01026 2.65039,-0.07617 0.738603,-0.08643 1.376132,-0.005 2.283204,-0.912109 a 1.9845734,1.9845734 0 0 0 0.05469,-0.05664 c 0.572904,-0.620648 0.581453,-0.994092 0.669922,-1.375 0.08847,-0.380908 0.139518,-0.769839 0.181641,-1.222656 0.08424,-0.905635 0.11914,-2.0589 0.11914,-3.525391 0,-1.452235 -0.01917,-2.570377 -0.06641,-3.40039 -0.02362,-0.415007 -0.05221,-0.754179 -0.101563,-1.076172 -0.02468,-0.160997 -0.05113,-0.314878 -0.111328,-0.517578 -0.05718,-0.192551 -0.09987,-0.460461 -0.533203,-0.917969 -0.626451,-0.68082 -0.967101,-0.632125 -1.261719,-0.705078 -0.306482,-0.07589 -0.591307,-0.115803 -0.923828,-0.152344 -0.66504,-0.07308 -1.500377,-0.11715 -2.568359,-0.142578 z m -0.0957,3.96875 a 1.9845734,1.9845734 0 0 0 0.002,0 c 0.739105,0.0176 1.184054,0.05213 1.636719,0.08594 0.03219,0.688686 0.05469,1.58668 0.05469,2.857422 0,1.397201 -0.03771,2.46904 -0.101562,3.15625 -0.427971,0.03554 -0.971879,0.06363 -1.765625,0.04492 -0.0027,-9.8e-5 -0.0032,9.9e-5 -0.0059,0 -0.736596,-0.02742 -1.192069,-0.07546 -1.621093,-0.121094 -0.04736,-0.703046 -0.08203,-1.712392 -0.09375,-3.060547 -0.01129,-1.309273 0.01792,-2.261439 0.06445,-2.9375 0.470352,-0.02522 1.016503,-0.04499 1.830078,-0.02539 z"
           id="path27874" />
        <path
           style="color:#000000;-inkscape-font-specification:CHUCKLESOME;stroke:none;stroke-linecap:butt;stroke-linejoin:miter;-inkscape-stroke:none"
           d="m 73.98871,26.857913 q 0.851959,-0.66675 6.482297,-0.814917 5.66738,-0.148167 11.112509,0.185209 5.44513,0.333375 5.88963,0.889 0.444501,0.555626 0.666751,6.074839 0.259292,5.482171 -0.03704,11.260676 -0.259292,5.741463 -1.111251,6.593422 -0.703792,0.703793 -4.296837,0.963085 -3.556003,0.259292 -7.556506,0.148166 -4.000504,-0.111125 -7.445382,-0.481542 -3.407836,-0.370417 -3.815295,-0.851959 -0.555625,-0.66675 -0.851959,-6.33413 -0.296333,-5.66738 -0.07408,-11.371802 0.259292,-5.704421 1.037168,-6.260047 z m 8.704799,7.889882 q -0.407459,0.370417 -0.370417,4.667254 0.03704,4.259795 0.333375,4.667254 0.296334,0.370417 3.296711,0.481542 3.000378,0.07408 3.48192,-0.407458 0.4445,-0.481543 0.4445,-4.77838 0,-4.296837 -0.259292,-4.556128 -0.259292,-0.296334 -3.370794,-0.370417 -3.074461,-0.07408 -3.556003,0.296333 z"
           id="path27876" />
      </g>
      <g
         id="path27837">
        <path
           style="color:#000000;-inkscape-font-specification:CHUCKLESOME;fill:#5a4870;stroke:none;stroke-linecap:butt;stroke-linejoin:miter;-inkscape-stroke:none"
           d="m 114.83789,24.876953 c -2.96132,-0.153173 -7.32865,-0.136464 -13.14648,0.03516 -0.81705,0.0013 -1.713778,0.375889 -2.287113,0.949219 a 1.9845734,1.9845734 0 0 0 -0.07227,0.07617 c -0.508274,0.564758 -0.84375,1.400735 -0.84375,2.179687 a 1.9845734,1.9845734 0 0 0 0.002,0.0332 l 0.369141,22.822265 c 0,0.516238 0.125523,1.051836 0.357422,1.515625 a 1.9845734,1.9845734 0 0 0 0.160156,0.267578 c 0.248162,0.347424 0.558824,0.656135 0.906244,0.904297 a 1.9845734,1.9845734 0 0 0 0.26563,0.160156 c 0.46379,0.2319 1.00135,0.359376 1.51758,0.359375 9.4418,0 15.89285,-0.14505 19.55078,-0.453125 1.07592,-0.07371 2.1351,-0.443272 3.00195,-1.083984 a 1.9845734,1.9845734 0 0 0 0.043,-0.0332 c 0.75423,-0.590265 1.39419,-1.313877 1.88672,-2.134766 a 1.9845734,1.9845734 0 0 0 0.0176,-0.0293 c 0.48731,-0.844676 0.84373,-1.807425 1.12304,-2.892578 0.28488,-1.038317 0.51006,-2.036905 0.66992,-2.996093 0.15588,-0.935222 0.27824,-2.01154 0.37891,-3.21875 0.21451,-1.53809 0.26976,-3.091506 0.16211,-4.652344 -0.10557,-1.530674 -0.31712,-2.954036 -0.64648,-4.271485 -0.36263,-1.450497 -1.03891,-2.77656 -1.99414,-3.894531 -0.97244,-1.191791 -2.27683,-2.066221 -3.74805,-2.492187 -2.15668,-0.627894 -4.70185,-0.996668 -7.67383,-1.150391 z m -0.20508,3.962891 c 2.75714,0.142611 5.02449,0.489996 6.76953,0.998047 a 1.9845734,1.9845734 0 0 0 0.004,0 c 0.74196,0.214343 1.28232,0.570329 1.78906,1.195312 a 1.9845734,1.9845734 0 0 0 0.0371,0.04492 c 0.56358,0.654485 0.94475,1.39031 1.17188,2.298828 0.2633,1.053219 0.44511,2.248151 0.53711,3.582031 0.0895,1.297174 0.0455,2.576897 -0.13282,3.847657 a 1.9845734,1.9845734 0 0 0 -0.0137,0.113281 c -0.0954,1.169108 -0.21368,2.168859 -0.34961,2.984375 -0.13543,0.81259 -0.3302,1.685265 -0.58593,2.615234 a 1.9845734,1.9845734 0 0 0 -0.008,0.0332 c -0.2118,0.826017 -0.46612,1.45362 -0.71484,1.888672 -0.24085,0.398668 -0.53148,0.726947 -0.89649,1.017578 -0.25975,0.188267 -0.50312,0.284323 -0.89648,0.310547 a 1.9845734,1.9845734 0 0 0 -0.0352,0.0039 c -3.22695,0.272701 -9.66708,0.408443 -18.49218,0.419922 L 102.4707,28.876953 c 5.32264,-0.145418 9.56,-0.171702 12.16211,-0.03711 z m -0.46093,4.695312 c -1.25285,-0.05966 -2.8278,-0.05498 -4.76172,0.0078 a 1.9845734,1.9845734 0 0 0 -0.0352,0 1.9845734,1.9845734 0 0 0 -1.88281,2.046875 l 0.25781,7.927734 a 1.9845734,1.9845734 0 0 0 1.98438,1.919922 c -0.14638,0 -0.0894,-0.0061 0.006,0.0098 a 1.9845734,1.9845734 0 0 0 0.32618,0.02734 c 0.0784,0 0.40295,0.0092 0.85937,0.0332 a 1.9845734,1.9845734 0 0 0 0.10547,0.0039 h 1.33203 c 0.45871,0 0.96872,-0.01332 1.53516,-0.03906 0.58006,-0.02636 1.10559,-0.06653 1.58594,-0.123047 0.50989,-0.05998 0.98998,-0.153899 1.45117,-0.294922 0.52192,-0.148408 1.1224,-0.331596 1.67383,-1.097656 0.72058,-0.907646 0.85054,-1.752298 1.01367,-2.839844 a 1.9845734,1.9845734 0 0 0 0.002,-0.0078 c 0.17823,-1.217911 0.16219,-2.456374 -0.043,-3.6875 -0.22882,-1.372916 -0.9265,-2.849761 -2.40039,-3.410156 -0.92467,-0.363959 -1.76973,-0.417513 -3.00976,-0.476563 z m -0.18946,3.962891 c 1.08078,0.05147 1.82743,0.231753 1.75586,0.203125 a 1.9845734,1.9845734 0 0 0 0.041,0.01563 c -0.29817,-0.111814 -0.22946,-0.339661 -0.11328,0.357422 0.14051,0.843206 0.14935,1.653903 0.0312,2.460937 -0.10204,0.659162 -0.18987,0.783251 -0.14454,0.769531 -0.15667,0.03731 -0.30358,0.07673 -0.53125,0.103516 -0.35926,0.04227 -0.79625,0.07659 -1.30273,0.09961 -0.52012,0.02364 -0.97457,0.03516 -1.35547,0.03516 h -0.70703 l -0.13281,-4.039063 c 0.8447,-0.0049 1.86087,-0.03434 2.45898,-0.0059 z"
           id="path27880" />
        <path
           style="color:#000000;-inkscape-font-specification:CHUCKLESOME;stroke:none;stroke-linecap:butt;stroke-linejoin:miter;-inkscape-stroke:none"
           d="m 101.69588,26.894955 q 8.74184,-0.259292 13.03868,-0.03704 4.29684,0.222251 7.22313,1.07421 1.66688,0.481542 2.77813,1.852085 1.14829,1.333501 1.59279,3.111502 0.4445,1.778002 0.59267,3.92642 0.14817,2.148419 -0.14817,4.259796 -0.14816,1.815043 -0.37042,3.148544 -0.22225,1.333501 -0.6297,2.815169 -0.37042,1.444626 -0.92605,2.40771 -0.55562,0.926043 -1.40758,1.592793 -0.85196,0.629709 -1.96321,0.703793 -5.25992,0.4445 -19.40985,0.4445 -0.33338,0 -0.62971,-0.148167 -0.25929,-0.185208 -0.4445,-0.4445 -0.14817,-0.296334 -0.14817,-0.629709 l -0.37041,-22.854728 q 0,-0.481542 0.33337,-0.851959 0.37042,-0.370417 0.889,-0.370417 z m 7.77876,8.630716 0.25929,7.926923 q 0.11113,0 0.33338,0.03704 0.25929,0 0.96308,0.03704 0.70379,0 1.3335,0 0.62971,0 1.44463,-0.03704 0.81491,-0.03704 1.44462,-0.111125 0.62971,-0.07408 1.11125,-0.22225 0.51859,-0.148167 0.66676,-0.370417 0.40745,-0.481542 0.6297,-1.96321 0.22225,-1.51871 -0.037,-3.074461 -0.25929,-1.555752 -1.14829,-1.889127 -1.29646,-0.518584 -7.00088,-0.333375 z"
           id="path27882" />
      </g>
      <g
         id="path27839">
        <path
           style="color:#000000;-inkscape-font-specification:CHUCKLESOME;fill:#5a4870;stroke:none;stroke-linecap:butt;stroke-linejoin:miter;-inkscape-stroke:none"
           d="m 134.77344,24.058594 c -2.71122,0 -4.40046,0.01633 -5.95313,0.74414 a 1.9845734,1.9845734 0 0 0 -0.62695,0.460938 c -0.51733,0.569061 -0.63468,1.029852 -0.77539,1.523437 -0.14072,0.493585 -0.23897,1.028781 -0.32422,1.65625 -0.17051,1.25494 -0.27885,2.870518 -0.3418,4.910157 a 1.9845734,1.9845734 0 0 0 0,0.01172 c -0.0999,4.044668 -0.0617,8.005078 0.11328,11.88086 0.0872,1.93162 0.18077,3.430585 0.28516,4.533203 0.0522,0.551309 0.1048,1.000005 0.17188,1.388672 0.0671,0.388667 -0.0251,0.584517 0.44921,1.322265 a 1.9845734,1.9845734 0 0 0 0.0176,0.02734 c 0.70206,1.053107 1.33933,1.05294 1.9375,1.208984 0.59817,0.156045 1.26111,0.252054 2.07422,0.332032 a 1.9845734,1.9845734 0 0 0 0.0332,0.002 c 1.59136,0.130438 3.17211,0.15663 4.74219,0.07813 0.79959,-0.03998 1.44518,-0.09946 2.03516,-0.22461 0.29499,-0.06257 0.57688,-0.137047 0.90625,-0.289062 0.32936,-0.152015 0.78564,-0.37361 1.14648,-1.035156 a 1.9845734,1.9845734 0 0 0 0.0606,-0.119141 c 0.4062,-0.880105 0.307,-1.151564 0.36328,-1.832031 0.0563,-0.680468 0.0967,-1.549889 0.125,-2.642578 0.0567,-2.18399 0.0644,-5.250264 0.0273,-9.222657 v -0.002 c -0.0247,-3.979616 -0.0579,-6.988894 -0.10156,-9.039062 -0.0218,-1.025306 -0.0462,-1.807899 -0.0742,-2.373047 -0.014,-0.282574 -0.0285,-0.507332 -0.0488,-0.710938 -0.0102,-0.101802 -0.0196,-0.19473 -0.043,-0.324218 -0.0186,-0.103345 -0.0694,-0.319185 -0.28907,-0.701172 -0.44234,-0.794976 -1.00552,-1.003287 -1.39062,-1.138672 -0.41518,-0.145959 -0.79115,-0.212754 -1.22266,-0.269531 -0.86302,-0.113555 -1.92936,-0.15625 -3.29687,-0.15625 z m 0,3.96875 c 1.075,0 1.77698,0.04738 2.34375,0.101562 0.018,0.468938 0.0368,0.936398 0.0527,1.6875 0.0428,2.011625 0.0769,5.009755 0.10156,8.980469 a 1.9845734,1.9845734 0 0 0 0,0.0078 c 0.0369,3.950846 0.0271,6.988783 -0.0273,9.087891 -0.0248,0.957147 -0.0611,1.6599 -0.10156,2.205078 -0.24855,0.02831 -0.3943,0.05966 -0.76367,0.07813 -1.39132,0.06957 -2.7955,0.04577 -4.21485,-0.07031 h -0.006 c -0.46473,-0.0468 -0.71674,-0.100936 -0.99023,-0.152344 -0.0228,-0.183905 -0.0429,-0.301075 -0.0664,-0.548828 -0.0932,-0.984062 -0.18586,-2.441872 -0.27148,-4.337891 -0.17069,-3.779494 -0.20707,-7.647184 -0.10938,-11.603515 l -0.002,0.01172 c 0.0605,-1.960861 0.17042,-3.481097 0.30859,-4.498047 0.0399,-0.293861 0.0781,-0.435459 0.11914,-0.636718 0.4387,-0.08509 1.48279,-0.3125 3.62696,-0.3125 z"
           id="path27886" />
        <path
           style="color:#000000;-inkscape-font-specification:CHUCKLESOME;stroke:none;stroke-linecap:butt;stroke-linejoin:miter;-inkscape-stroke:none"
           d="m 129.44008,51.416559 q -0.33338,-0.518583 -0.59267,-6.260047 -0.25929,-5.741463 -0.11112,-11.742218 0.1852,-6.000755 0.92604,-6.815673 1.18533,-0.555625 5.11175,-0.555625 3.96346,0 4.22276,0.555625 0.18521,0.259292 0.25929,12.186719 0.11112,11.890385 -0.33338,12.85347 -0.22225,0.407458 -2.44475,0.518583 -2.2225,0.111126 -4.48204,-0.07408 -2.25955,-0.22225 -2.55588,-0.666751 z"
           id="path27888" />
      </g>
      <g
         id="path27841">
        <path
           style="color:#000000;-inkscape-font-specification:CHUCKLESOME;fill:#5a4870;stroke:none;stroke-linecap:butt;stroke-linejoin:miter;-inkscape-stroke:none"
           d="m 161.92383,24.392578 0.0137,0.002 c -3.45524,-0.151324 -7.11051,-0.113779 -10.96875,0.111328 -1.94847,0.10122 -3.55443,0.252062 -4.86133,0.46875 -1.3069,0.216689 -2.28853,0.431766 -3.22461,1.007813 a 1.9845734,1.9845734 0 0 0 -0.0215,0.01367 c -1.84871,1.170849 -2.20346,2.99223 -2.73242,5.53125 a 1.9845734,1.9845734 0 0 0 -0.004,0.01953 c -0.49464,2.499257 -0.76512,5.16038 -0.81641,7.980469 a 1.9845734,1.9845734 0 0 0 0,0.01758 c -0.0259,2.853966 0.24763,5.565517 0.82813,8.125 0.59796,2.636471 1.45343,4.751367 3.5664,5.642578 1.62701,0.72118 3.46131,1.131439 5.48047,1.267578 1.96021,0.156193 3.67455,0.126152 5.18555,-0.134766 h 0.006 c 1.36341,-0.209058 2.27406,-0.318301 3.29883,-1.021484 0.0548,-0.03729 0.0931,-0.09977 0.14648,-0.138672 0.16752,0.171159 0.25989,0.352598 0.55078,0.498047 a 1.9845734,1.9845734 0 0 0 0.125,0.05859 c 0.92312,0.384627 1.14159,0.25085 1.78125,0.271484 0.63966,0.02063 1.45288,0.01546 2.47461,-0.0098 a 1.9845734,1.9845734 0 0 0 0.0234,0 c 2.04468,-0.07481 2.98261,-0.07426 3.91016,-0.259766 a 1.9845734,1.9845734 0 0 0 0.0918,-0.02148 c 0.84807,-0.212022 1.15264,-0.728427 1.3086,-0.998047 0.15595,-0.269621 0.20642,-0.449909 0.2539,-0.615235 0.095,-0.330652 0.13502,-0.607848 0.17578,-0.941406 0.0809,-0.661666 0.13196,-1.510347 0.16993,-2.613281 0.1019,-2.241242 0.09,-4.505432 -0.0371,-6.792969 -0.064,-1.165422 -0.1471,-2.080998 -0.27539,-2.828125 -0.0642,-0.373563 -0.13378,-0.701309 -0.25977,-1.054687 -0.12001,-0.336604 -0.25525,-0.779798 -0.92773,-1.263672 -0.26006,-0.191692 -0.43649,-0.239499 -0.61914,-0.296875 0.0234,-0.04036 0.15207,-0.109682 0.17382,-0.142578 0.13017,-0.196838 0.1964,-0.339996 0.26172,-0.486329 0.13066,-0.292664 0.23445,-0.588007 0.35157,-0.953125 0.23422,-0.730235 0.5037,-1.716804 0.83007,-3.009765 0.32679,-1.294553 0.56358,-2.322169 0.71289,-3.123047 0.0747,-0.400439 0.12756,-0.742392 0.15821,-1.066406 0.0307,-0.324015 0.10399,-0.55536 -0.0625,-1.179688 a 1.9845734,1.9845734 0 0 0 -1.81055,-1.46875 l 1.75781,1.302735 c -0.31903,-0.877374 -0.82447,-1.062473 -1.0957,-1.197266 -0.27123,-0.134793 -0.46456,-0.188397 -0.66016,-0.238281 -0.3912,-0.09977 -0.78185,-0.156042 -1.26562,-0.210938 -0.96755,-0.109792 -2.27642,-0.189262 -3.99414,-0.251953 z m -0.16016,3.966797 a 1.9845734,1.9845734 0 0 0 0.0156,0 c 1.39139,0.05078 2.30752,0.120272 3.08398,0.191406 -0.12928,0.625188 -0.27498,1.302998 -0.52734,2.302735 -0.305,1.208279 -0.55214,2.093233 -0.73633,2.675781 -0.26424,0.03098 -0.52429,0.06427 -0.93555,0.08984 -1.11947,0.0696 -2.73682,0.107421 -4.8125,0.107421 -2.12237,0 -3.79026,0.03653 -5.04297,0.115235 -0.62635,0.03935 -1.14598,0.08781 -1.60156,0.158203 -0.43353,0.06698 -0.7746,0.09945 -1.34766,0.410156 -1.52111,0.784673 -1.83758,2.224114 -2.01562,3.648438 a 1.9845734,1.9845734 0 0 0 -0.004,0.03516 c -0.13803,1.297548 -0.13899,2.590376 0,3.869141 0.13292,1.222863 0.23486,2.065227 0.65821,2.964843 a 1.9845734,1.9845734 0 0 0 0.0449,0.08789 c 0.41921,0.786 1.01041,1.118965 1.54492,1.371094 0.53451,0.252128 1.09421,0.415033 1.74023,0.558593 a 1.9845734,1.9845734 0 0 0 0.008,0.002 c 1.39087,0.302363 2.81675,0.317698 4.21093,0.04492 0.78426,-0.153441 1.54098,-0.427327 2.19922,-0.958984 0.65825,-0.531657 1.14776,-1.358548 1.29883,-2.189453 a 1.9845734,1.9845734 0 0 0 -1.95312,-2.337891 c -0.29456,0 -0.48724,0.03456 -0.68555,0.07422 l 0.38867,-0.03711 c -0.32778,0 -0.54509,0.03751 -0.81836,0.08008 -0.24959,0.0192 -0.47253,0.03919 -0.69531,0.05859 -0.0206,-0.197327 -0.0447,-0.270321 -0.0586,-0.533204 -0.025,-0.787449 -0.007,-0.825687 0.0215,-1.191406 0.35815,-0.04124 0.63484,-0.08541 1.20898,-0.115234 1.8317,-0.09515 3.70239,-0.09555 5.61329,0 a 1.9845734,1.9845734 0 0 0 0.0254,0 c 0.84363,0.03164 1.43619,0.08274 1.89453,0.134765 0.0723,0.489445 0.14657,1.145389 0.19922,2.103516 0.11986,2.157463 0.13086,4.28955 0.0351,6.394531 a 1.9845734,1.9845734 0 0 0 0,0.02148 c -0.024,0.70541 -0.061,1.085382 -0.0957,1.529297 -0.56766,0.04163 -0.77406,0.06669 -1.99414,0.111328 -0.72943,0.01775 -1.21313,0.01332 -1.68359,0.0078 v -0.283203 -0.667969 l 0.0234,-0.224609 a 1.9845734,1.9845734 0 0 0 -3.66992,-1.244141 c -0.87262,1.446717 -1.66799,2.288727 -1.86133,2.419922 a 1.9845734,1.9845734 0 0 0 -0.01,0.0078 c 0.24682,-0.169689 -0.51607,0.19553 -1.69532,0.376953 a 1.9845734,1.9845734 0 0 0 -0.0371,0.0059 c -1.05312,0.182271 -2.46991,0.226861 -4.20704,0.08789 a 1.9845734,1.9845734 0 0 0 -0.0273,-0.002 c -1.66577,-0.111052 -3.04905,-0.440353 -4.17578,-0.94336 a 1.9845734,1.9845734 0 0 0 -0.043,-0.01758 c -0.002,-7.9e-4 -0.75084,-0.719931 -1.23828,-2.86914 -0.50538,-2.228248 -0.75121,-4.624343 -0.72852,-7.199219 0.0478,-2.605287 0.29637,-5.02506 0.73828,-7.261719 0.4586,-2.185026 1.32564,-3.197566 0.9668,-2.972656 0.0411,-0.02207 0.71109,-0.292286 1.77539,-0.46875 1.07612,-0.178423 2.5635,-0.323586 4.41797,-0.419922 a 1.9845734,1.9845734 0 0 0 0.0117,0 c 3.74309,-0.218752 7.26883,-0.254222 10.57617,-0.109375 z m 4.1543,8.666016 -0.2207,0.09961 c 0.0538,-0.02019 0.0206,-0.03615 0.0684,-0.05664 0.0589,-0.02714 0.0881,-0.0094 0.15235,-0.04297 z m -13.90235,0.728515 c -0.009,0.02504 0.003,0.05141 -0.006,0.07617 -0.009,0.02975 -0.0286,0.03138 -0.0371,0.0625 z m -0.25585,0.125 c -0.0688,0.03932 -0.0431,0.02429 -0.0781,0.04297 -0.0144,0.0075 -0.002,-6.3e-5 -0.0176,0.0078 a 1.9845734,1.9845734 0 0 0 0.0957,-0.05078 z m 0.24414,0.02539 c -0.31101,0.961027 -0.26547,1.817785 -0.21875,2.988281 -0.0486,-0.781271 -0.0825,-1.563995 0.002,-2.365234 0.0496,-0.36443 0.11865,-0.51752 0.16016,-0.619141 0.0136,-0.0019 0.0424,-0.002 0.0566,-0.0039 z"
           id="path27892" />
        <path
           style="color:#000000;-inkscape-font-specification:CHUCKLESOME;stroke:none;stroke-linecap:butt;stroke-linejoin:miter;-inkscape-stroke:none"
           d="m 167.07441,26.969038 q 0.14817,0.555626 -0.81492,4.370921 -0.96308,3.815295 -1.25941,3.92642 -0.85196,0.4445 -7.14905,0.4445 -6.29709,0 -7.07497,0.444501 -0.74083,0.370417 -0.96308,2.148418 -0.18521,1.74096 0,3.444878 0.18521,1.703918 0.48154,2.333627 0.29634,0.555626 1.96321,0.926043 1.70392,0.370417 3.40784,0.03704 1.70392,-0.333375 1.92617,-1.555751 -0.11113,0 -0.29634,0.03704 -0.1852,0 -0.66675,0.07408 -0.48154,0.03704 -0.889,0.07408 -0.40746,0 -0.85196,0 -0.40746,-0.03704 -0.59266,-0.07408 -0.4445,-0.185208 -0.55563,-2.370669 -0.0741,-2.18546 0.14817,-2.815169 0.11112,-0.407458 2.96333,-0.555625 2.85221,-0.148167 5.81555,0 2.96334,0.111125 3.37079,0.4445 0.4445,0.296334 0.62971,3.667128 0.18521,3.333753 0.037,6.593423 -0.11113,3.259669 -0.40746,3.333753 -0.55563,0.111125 -3.59305,0.22225 -3.00038,0.07408 -3.44488,-0.111125 -0.14816,-0.07408 -0.22225,-0.407459 -0.0741,-0.370417 -0.0741,-0.814917 0,-0.481543 0,-0.926043 0,-0.481542 0,-0.777876 l 0.037,-0.333375 q -1.40758,2.333627 -2.44475,3.037419 -0.59267,0.407459 -2.51884,0.703793 -1.92616,0.333375 -4.70429,0.111125 -2.77813,-0.185209 -4.85246,-1.111251 -1.5928,-0.666751 -2.40771,-4.259795 -0.81492,-3.593045 -0.77788,-7.667632 0.0741,-4.074587 0.77788,-7.63059 0.74083,-3.556003 1.85208,-4.259795 1.44463,-0.889001 7.14905,-1.185335 5.70442,-0.333375 10.77913,-0.111125 5.07472,0.185209 5.22288,0.592667 z"
           id="path27894" />
      </g>
      <g
         id="path27843">
        <path
           style="color:#000000;-inkscape-font-specification:CHUCKLESOME;fill:#5a4870;stroke:none;stroke-linecap:butt;stroke-linejoin:miter;-inkscape-stroke:none"
           d="m 176.50391,24.058594 c -1.91459,0.05038 -3.43892,0.143125 -4.63086,0.292968 -1.16191,0.146068 -1.9003,0.117959 -2.94727,0.90625 l -0.004,-0.01367 c -0.0113,0.0081 -0.005,0.01534 -0.0156,0.02344 -0.02,0.01523 -0.0344,0.01149 -0.0547,0.02734 a 1.9845734,1.9845734 0 0 0 -0.0254,0.08789 c -0.59823,0.49301 -0.82583,0.976392 -0.98047,1.416016 -0.16977,0.482631 -0.27899,0.986874 -0.37695,1.578125 -0.19592,1.182502 -0.32565,2.705419 -0.41406,4.650391 a 1.9845734,1.9845734 0 0 0 0,0.01367 c -0.15049,3.862772 -0.12455,7.713982 0.0762,11.552734 0.10036,1.919391 0.22026,3.427704 0.375,4.578125 0.0774,0.57521 0.16072,1.057809 0.27344,1.498047 0.11272,0.440238 0.15277,0.81497 0.66015,1.423828 a 1.9845734,1.9845734 0 0 0 0.01,0.01172 c 0.46792,0.553006 0.84031,0.665025 1.18164,0.798828 0.34133,0.133803 0.67771,0.225495 1.05859,0.310547 0.76177,0.170104 1.69736,0.305589 2.875,0.433593 a 1.9845734,1.9845734 0 0 0 0.002,0 c 2.35679,0.253419 4.89114,0.416844 7.60351,0.492188 2.72546,0.07571 5.30945,0.02583 7.75391,-0.152344 1.25732,-0.09073 2.28977,-0.218538 3.16211,-0.414062 0.87234,-0.195524 1.60605,-0.336533 2.39453,-1.125 1.0364,-1.03641 1.04963,-1.913256 1.25781,-3.148438 0.20766,-1.232118 0.34308,-2.792384 0.43164,-4.746094 0.20045,-3.909276 0.2145,-7.724302 0.0391,-11.443359 -0.0751,-1.864969 -0.16893,-3.319559 -0.28906,-4.414062 -0.0601,-0.547252 -0.12394,-1.001246 -0.21289,-1.41211 -0.089,-0.410864 -0.0482,-0.721401 -0.59766,-1.408203 -0.66114,-0.826429 -1.09482,-0.801257 -1.52343,-0.927734 -0.42862,-0.126477 -0.88194,-0.212832 -1.42578,-0.294922 -1.08769,-0.16418 -2.52219,-0.293171 -4.36914,-0.40625 -3.6899,-0.225913 -7.45144,-0.289681 -11.28516,-0.189453 a 1.9845734,1.9845734 0 0 0 -0.002,0 z m 0.10546,3.96875 c 3.72279,-0.09733 7.36919,-0.03695 10.93946,0.18164 1.78312,0.109171 3.14401,0.238941 4.01953,0.371094 0.16443,0.02482 0.20816,0.0421 0.33594,0.06641 0.0246,0.165816 0.0457,0.260362 0.0703,0.484375 0.10212,0.930441 0.19451,2.326123 0.26758,4.140625 a 1.9845734,1.9845734 0 0 0 0.002,0.01367 c 0.16962,3.586282 0.15726,7.275688 -0.0371,11.066406 a 1.9845734,1.9845734 0 0 0 0,0.01172 c -0.0843,1.867103 -0.22057,3.316674 -0.38281,4.279297 -0.0799,0.47391 -0.22768,0.830511 -0.30469,1.021484 -0.0137,-0.0081 0.068,-0.04403 -0.30273,0.03906 -0.55994,0.125504 -1.44009,0.244045 -2.57813,0.326172 a 1.9845734,1.9845734 0 0 0 -0.002,0 c -2.29633,0.167441 -4.74956,0.216972 -7.35742,0.144531 -2.62023,-0.07278 -5.04977,-0.23045 -7.28516,-0.470703 h -0.004 c -1.08646,-0.118214 -1.91593,-0.246073 -2.42578,-0.359375 -0.0407,-0.20294 -0.0815,-0.378134 -0.125,-0.701172 -0.12925,-0.960953 -0.24851,-2.397 -0.3457,-4.255859 -0.19416,-3.713205 -0.21945,-7.439223 -0.0742,-11.177735 0.0845,-1.857972 0.21543,-3.279415 0.36524,-4.183593 0.0434,-0.261974 0.0785,-0.363513 0.11914,-0.527344 0.22591,-0.0714 0.48279,-0.160906 0.86523,-0.208985 0.96882,-0.121794 2.40127,-0.213324 4.24023,-0.261718 z m -5.32617,0.351562 0.01,0.0293 c -0.0555,0.04943 0.0257,7.4e-5 -0.0644,0.06445 a 1.9845734,1.9845734 0 0 0 0.0547,-0.09375 z m 11.09961,4.087891 c -1.06588,-0.02568 -1.9244,-0.0146 -2.63867,0.04492 -0.71427,0.05952 -1.17913,-0.101085 -2.17383,0.664062 a 1.9845734,1.9845734 0 0 0 -0.125,0.103516 c -0.77992,0.709018 -0.6973,1.100497 -0.77929,1.474609 -0.082,0.374113 -0.12508,0.747438 -0.16016,1.189453 -0.0702,0.884031 -0.0927,2.024399 -0.0801,3.488282 0.0125,1.442663 0.0445,2.568818 0.10547,3.421875 0.0305,0.426528 0.0667,0.78153 0.12305,1.115234 0.0564,0.333704 -0.043,0.55622 0.48437,1.28125 a 1.9845734,1.9845734 0 0 0 0.0547,0.07227 c 0.54448,0.680614 0.94565,0.719861 1.27148,0.822265 0.32583,0.102404 0.62458,0.157615 0.96289,0.207031 0.67664,0.09883 1.49745,0.156807 2.53711,0.195313 a 1.9845734,1.9845734 0 0 0 0.0254,0 c 1.05447,0.02604 1.91179,0.01026 2.65039,-0.07617 0.73861,-0.08643 1.37614,-0.005 2.28321,-0.912109 a 1.9845734,1.9845734 0 0 0 0.0547,-0.05664 c 0.5729,-0.620648 0.58145,-0.994092 0.66992,-1.375 0.0885,-0.380908 0.13952,-0.769839 0.18164,-1.222656 0.0842,-0.905635 0.11914,-2.0589 0.11914,-3.525391 0,-1.452235 -0.0192,-2.570377 -0.0664,-3.40039 -0.0236,-0.415007 -0.0522,-0.75418 -0.10156,-1.076172 -0.0247,-0.160997 -0.0511,-0.314879 -0.11133,-0.517578 -0.0572,-0.19255 -0.0999,-0.460459 -0.5332,-0.917969 -0.62646,-0.680828 -0.9671,-0.632125 -1.26172,-0.705078 -0.30648,-0.07589 -0.59131,-0.115803 -0.92383,-0.152344 -0.66504,-0.07308 -1.50037,-0.11715 -2.56836,-0.142578 z m -0.0957,3.96875 a 1.9845734,1.9845734 0 0 0 0.002,0 c 0.73911,0.0176 1.18406,0.05213 1.63672,0.08594 0.0322,0.688687 0.0547,1.58668 0.0547,2.857422 0,1.397201 -0.0377,2.46904 -0.10156,3.15625 -0.42797,0.03554 -0.97188,0.06363 -1.76563,0.04492 -0.003,-9.8e-5 -0.003,9.9e-5 -0.006,0 -0.7366,-0.02742 -1.19207,-0.07546 -1.62109,-0.121094 -0.0474,-0.703035 -0.082,-1.712396 -0.0937,-3.060547 -0.0113,-1.309273 0.0179,-2.261439 0.0644,-2.9375 0.47035,-0.02522 1.0165,-0.04499 1.83008,-0.02539 z"
           id="path27898" />
        <path
           style="color:#000000;-inkscape-font-specification:CHUCKLESOME;stroke:none;stroke-linecap:butt;stroke-linejoin:miter;-inkscape-stroke:none"
           d="m 170.07473,26.857913 q 0.85196,-0.66675 6.4823,-0.814917 5.66738,-0.148167 11.11251,0.185209 5.44513,0.333375 5.88963,0.889 0.4445,0.555626 0.66675,6.074839 0.25929,5.482171 -0.037,11.260676 -0.2593,5.741463 -1.11125,6.593422 -0.7038,0.703793 -4.29684,0.963085 -3.556,0.259292 -7.55651,0.148166 -4.0005,-0.111125 -7.44538,-0.481542 -3.40784,-0.370417 -3.81529,-0.851959 -0.55563,-0.66675 -0.85196,-6.33413 -0.29634,-5.66738 -0.0741,-11.371802 0.2593,-5.704421 1.03717,-6.260047 z m 8.7048,7.889882 q -0.40746,0.370417 -0.37042,4.667254 0.037,4.259795 0.33338,4.667254 0.29633,0.370417 3.29671,0.481542 3.00038,0.07408 3.48192,-0.407458 0.4445,-0.481543 0.4445,-4.77838 0,-4.296837 -0.25929,-4.556128 -0.25929,-0.296334 -3.3708,-0.370417 -3.07446,-0.07408 -3.556,0.296333 z"
           id="path27900" />
      </g>
      <g
         id="path27845">
        <path
           style="color:#000000;-inkscape-font-specification:CHUCKLESOME;fill:#5a4870;stroke:none;stroke-linecap:butt;stroke-linejoin:miter;-inkscape-stroke:none"
           d="m 215.93164,24.761719 c -1.61587,0 -2.90508,0.02833 -3.9043,0.08789 -0.99922,0.05956 -1.53881,0.02609 -2.43945,0.394532 A 1.9845734,1.9845734 0 0 0 209.5,25.28125 c -0.69356,0.323664 -0.89547,0.736759 -1.04297,1.009766 -0.1475,0.273006 -0.21914,0.493079 -0.28516,0.716796 -0.13202,0.447436 -0.21523,0.913411 -0.29687,1.488282 -0.16328,1.149741 -0.29347,2.704434 -0.40625,4.734375 -0.22497,4.049495 -0.29958,8.111757 -0.22461,12.185547 a 1.9845734,1.9845734 0 0 0 0,0.01172 c 0.0502,2.046661 0.13868,3.618069 0.2832,4.794922 0.0723,0.588427 0.15036,1.071364 0.28907,1.542969 0.1387,0.471605 0.0778,1.146461 1.34375,1.742187 a 1.9845734,1.9845734 0 0 0 0.0977,0.02344 c 0.95663,0.420942 1.56108,0.401538 2.69531,0.484375 1.16709,0.08524 2.69668,0.137118 4.6211,0.162109 a 1.9845734,1.9845734 0 0 0 0.0117,0.002 c 1.93741,0.0125 3.42713,-0.01128 4.52343,-0.07813 0.54816,-0.03342 0.99261,-0.0741 1.4043,-0.146484 0.20585,-0.03619 0.40169,-0.07677 0.64649,-0.162109 0.24479,-0.08534 0.57678,-0.13596 1.04882,-0.712891 a 1.9845734,1.9845734 0 0 0 0.11524,-0.15625 c 0.37802,-0.567034 0.33752,-0.759347 0.38281,-0.996094 0.0453,-0.236746 0.072,-0.46315 0.0957,-0.722656 0.0473,-0.519012 0.0766,-1.160517 0.0957,-1.972656 0.0124,-0.527453 -0.009,-1.568525 -0.006,-2.236328 0.0358,0.03166 0.0656,0.06406 0.10156,0.0957 a 1.9845734,1.9845734 0 0 0 0.0488,0.04102 c 0.44928,0.369999 0.82362,0.659111 1.17969,0.896485 0.17803,0.118687 0.34821,0.226699 0.5664,0.332031 0.21819,0.105332 0.44216,0.261719 1.07031,0.261719 1.36952,0 1.4768,-0.502297 1.81641,-0.804688 0.15406,-0.137176 0.31687,-0.333874 0.4707,-0.49414 0.0228,0.726812 0.0327,1.446582 0.0645,2.177734 0.0378,0.870454 0.0792,1.539099 0.1289,2.050781 0.0249,0.255842 0.0475,0.466921 0.0918,0.697266 0.0222,0.115173 0.0466,0.231905 0.10938,0.414062 0.0627,0.182158 0.002,0.466783 0.7207,1.00586 a 1.9845734,1.9845734 0 0 0 0.0371,0.02734 c 0.72534,0.518092 0.8055,0.357993 0.98047,0.386718 0.17496,0.02873 0.3228,0.04211 0.49023,0.05469 0.33486,0.02516 0.73701,0.03919 1.24805,0.04883 1.02208,0.01929 2.46371,0.01507 4.35156,-0.0098 a 1.9845734,1.9845734 0 0 0 0.0117,0 c 1.90187,-0.03729 3.34804,-0.08235 4.37109,-0.140625 0.51153,-0.02914 0.91191,-0.06077 1.25391,-0.103515 0.171,-0.02137 0.32263,-0.04076 0.51953,-0.08789 0.0985,-0.02356 0.20707,-0.05064 0.375,-0.119141 0.16794,-0.0685 0.41886,-0.116308 0.81836,-0.595703 a 1.9845734,1.9845734 0 0 0 0.44922,-1.058593 c 0.11797,-1.10133 0.0982,-3.075949 0.0488,-6.707032 v -0.002 c -0.0249,-3.684854 -0.13734,-7.647685 -0.33594,-11.892578 -0.0997,-2.142621 -0.20372,-3.765471 -0.32227,-4.917969 -0.0593,-0.576248 -0.11752,-1.025846 -0.20312,-1.433593 -0.0428,-0.203874 -0.0837,-0.38976 -0.19141,-0.65625 -0.1077,-0.266491 -0.0982,-0.904274 -1.36133,-1.283204 a 1.9845734,1.9845734 0 0 0 -0.22656,-0.05273 c -0.65474,-0.115547 -1.08472,-0.101335 -2.11719,-0.132812 -1.03246,-0.03148 -2.45412,-0.05921 -4.27539,-0.08398 -3.59991,-0.04931 -5.45018,-0.0818 -6.67773,0.0957 -1.44236,0.170982 -1.72742,0.872039 -2.20313,1.47461 a 1.9845734,1.9845734 0 0 0 -0.01,0.01172 c -0.40352,0.518806 -0.78146,1.081638 -1.14063,1.689454 a 1.9845734,1.9845734 0 0 0 -0.0352,0.06055 c -0.16755,0.307166 -0.35712,0.685881 -0.53711,1.033204 -0.4332,-0.57905 -0.81503,-1.147999 -1.32227,-1.742188 -0.93627,-1.09678 -1.42092,-1.846172 -2.77539,-2.324219 a 1.9845734,1.9845734 0 0 0 -0.0723,-0.02344 c -0.7589,-0.235521 -1.4438,-0.276926 -2.48633,-0.335938 -1.04254,-0.05901 -2.36415,-0.08789 -3.99219,-0.08789 z m 0,3.96875 c 1.58224,0 2.84886,0.02796 3.76953,0.08008 0.88668,0.05019 1.46864,0.161412 1.47656,0.158203 -0.46896,-0.161641 0.28,0.226266 1.06055,1.140625 0.81923,0.959671 1.51045,1.871588 2.07422,2.728516 a 1.9845734,1.9845734 0 0 0 0.0195,0.0293 l 0.96484,1.408204 a 1.9845734,1.9845734 0 0 0 3.41211,-0.232422 c 0.0938,-0.187624 0.19903,-0.413248 0.32813,-0.697266 a 1.9845734,1.9845734 0 0 0 0.0254,-0.05664 c 0.0973,-0.233548 0.31535,-0.721615 0.62109,-1.380859 0.32448,-0.648349 0.62316,-1.222288 0.89649,-1.724609 0.27652,-0.466286 0.55657,-0.881473 0.83789,-1.244141 0.2613,-0.330982 0.5792,-0.112315 -0.44922,0.002 a 1.9845734,1.9845734 0 0 0 0.0703,-0.0098 c 0.007,-0.001 0.36178,-0.0024 0.38672,-0.0039 0.36799,-0.02236 2.34711,-0.09483 5.70508,-0.04883 1.80881,0.02461 3.21455,0.05177 4.20703,0.08203 0.17524,0.0053 0.11527,0.006 0.27344,0.01367 0.10337,1.00872 0.20712,2.581897 0.30469,4.679688 0.19649,4.199908 0.30754,8.114093 0.33203,11.738281 a 1.9845734,1.9845734 0 0 0 0,0.01367 c 0.0368,2.708049 0.003,3.728265 -0.0195,4.677734 -0.92657,0.04825 -2.18214,0.09276 -3.92579,0.126953 -1.79562,0.02353 -3.13498,0.02364 -4.07226,0.0078 -0.0185,-0.301628 -0.0372,-0.486098 -0.0547,-0.888672 -0.0733,-1.685214 -0.12207,-3.35766 -0.14648,-5.017578 l -0.0371,-2.519531 a 1.9845734,1.9845734 0 0 0 -3.58594,-1.140625 c -1.15635,1.582376 -2.07063,2.758984 -2.69727,3.486328 -0.0101,0.01175 -0.0115,0.01192 -0.0215,0.02344 -0.0493,-0.03979 -0.0627,-0.0466 -0.11523,-0.08984 -0.003,-0.0021 -0.003,-0.0018 -0.006,-0.0039 -0.76642,-0.675249 -1.48678,-1.350056 -2.15625,-2.019531 a 1.9845734,1.9845734 0 0 0 -0.0234,-0.02344 l -1.11133,-1.074219 a 1.9845734,1.9845734 0 0 0 -3.36328,1.460937 c 0.0491,2.949214 0.0554,5.202299 0.0195,6.726563 -0.0105,0.446483 -0.032,0.684851 -0.0488,1 -0.008,4.68e-4 -0.008,0.0015 -0.0156,0.002 -0.92566,0.05644 -2.36094,0.08222 -4.24219,0.07031 -1.87852,-0.02439 -3.35209,-0.07707 -4.38281,-0.152343 -0.53676,-0.0392 -0.46325,-0.02747 -0.73438,-0.07813 -0.016,-0.103286 -0.0258,-0.116451 -0.041,-0.240235 -0.11447,-0.932046 -0.20721,-2.427693 -0.25586,-4.398437 v -0.0098 c -2e-5,-8.73e-4 2e-5,-0.0011 0,-0.002 -0.0728,-3.972655 0.001,-7.931295 0.2207,-11.878906 0.10948,-1.970559 0.23804,-3.459545 0.37109,-4.396485 0.0149,-0.104953 0.024,-0.116214 0.0391,-0.207031 0.22099,-0.03398 0.11097,-0.01858 0.42187,-0.03711 0.86521,-0.05157 2.09825,-0.08008 3.66797,-0.08008 z m -4.33789,21.740234 c 0.0887,0.151719 0.0478,0.231951 0.0312,0.175781 -0.006,-0.0205 -0.0226,-0.138789 -0.0312,-0.175781 z"
           id="path27904" />
        <path
           style="color:#000000;-inkscape-font-specification:CHUCKLESOME;stroke:none;stroke-linecap:butt;stroke-linejoin:miter;-inkscape-stroke:none"
           d="m 210.00561,51.712893 q -0.62971,-0.296334 -0.77788,-6.33413 -0.11112,-6.037797 0.22225,-12.038552 0.33338,-6.000756 0.889,-6.260047 0.81492,-0.333376 5.5933,-0.333376 4.81542,0 5.88963,0.333376 0.62971,0.22225 1.92617,1.740959 1.29646,1.51871 2.2225,2.926295 l 0.96308,1.407584 q 0.11113,-0.22225 0.29634,-0.629709 0.18521,-0.4445 0.66675,-1.481668 0.51858,-1.037167 0.96308,-1.852085 0.48154,-0.814917 1.00013,-1.481668 0.55562,-0.703792 0.889,-0.740834 1.00012,-0.148166 6.40821,-0.07408 5.44513,0.07408 6.07484,0.185209 0.37042,0.111125 0.66675,6.482297 0.29634,6.33413 0.33338,11.816302 0.0741,5.445129 -0.037,6.482297 -0.18521,0.22225 -5.85259,0.333375 -5.63034,0.07408 -5.88963,-0.111125 -0.14817,-0.111125 -0.2593,-2.667002 -0.11112,-2.555877 -0.14816,-5.074713 l -0.037,-2.518835 q -3.51897,4.81542 -4.14867,4.81542 -0.29634,0 -1.55576,-1.037167 -1.22237,-1.074209 -2.29658,-2.148419 l -1.11125,-1.074209 q 0.14817,8.890008 -0.22225,9.445633 -0.33338,0.407459 -6.07484,0.370417 -5.70442,-0.07408 -6.59342,-0.481542 z"
           id="path27906" />
      </g>
      <g
         id="path27847">
        <path
           style="color:#000000;-inkscape-font-specification:CHUCKLESOME;fill:#5a4870;stroke:none;stroke-linecap:butt;stroke-linejoin:miter;-inkscape-stroke:none"
           d="m 256.66211,24.837891 c -1.89013,0.0504 -2.93023,0.05522 -4.01367,0.376953 -1.27169,0.361238 -1.30263,0.90001 -1.55469,1.304687 -0.25396,0.407732 -0.47395,0.858288 -0.7207,1.416016 -0.49351,1.115455 -1.06893,2.644419 -1.75782,4.648437 a 1.9845734,1.9845734 0 0 0 -0.002,0.0078 c -1.34511,3.960601 -2.57817,7.946144 -3.69922,11.957031 -0.5587,1.986604 -0.964,3.507391 -1.22265,4.59375 -0.12944,0.543611 -0.22269,0.972608 -0.28321,1.34375 -0.0302,0.185571 -0.0545,0.349965 -0.0644,0.564453 -0.009,0.192301 -0.14116,0.411439 0.23828,1.115235 0.34541,0.724363 0.89887,1.105983 1.35547,1.322265 0.4821,0.228362 0.94567,0.342216 1.45898,0.435547 a 1.9845734,1.9845734 0 0 0 0.0566,0.0098 c 0.91884,0.139217 1.92582,0.217868 3.0293,0.24414 a 1.9845734,1.9845734 0 0 0 0.0469,0.002 c 1.05291,0 1.98542,-0.01352 2.80273,-0.03906 a 1.9845734,1.9845734 0 0 0 0.0625,-0.002 c 0.79536,-0.04971 1.33723,-0.08751 1.66992,-0.115235 a 1.9845734,1.9845734 0 0 0 0.11524,-0.01367 c 0.56575,-0.08082 1.16425,-0.379103 1.56836,-0.783204 a 1.9845734,1.9845734 0 0 0 0.12109,-0.132812 c 0.40397,-0.484765 0.55651,-0.920887 0.69727,-1.376953 0.13035,-0.371448 0.23656,-0.71941 0.30859,-1.072266 0.0823,-0.313215 0.17017,-0.707753 0.26953,-1.197265 l 3.23828,0.01758 c 0.13032,0.585404 0.28579,1.319425 0.38867,1.734375 0.0979,0.39482 0.18247,0.710799 0.26758,0.984375 0.0426,0.136788 0.084,0.261516 0.14258,0.40625 0.0586,0.144733 0.0533,0.271127 0.39844,0.673828 a 1.9845734,1.9845734 0 0 0 0.10351,0.111328 c 0.72239,0.722384 1.09838,0.635491 1.46094,0.701172 0.36256,0.06568 0.71699,0.09167 1.13477,0.109375 0.83556,0.0354 1.90409,0.01634 3.26953,-0.04687 v 0.002 c 1.37745,-0.06319 2.46131,-0.143822 3.30859,-0.255859 0.42364,-0.05602 0.78514,-0.118287 1.13867,-0.210938 0.3271,-0.08572 0.66938,-0.162256 1.1875,-0.597656 0.62119,-0.50464 0.70936,-1.002637 0.75586,-1.269531 0.0498,-0.285845 0.0428,-0.465225 0.0352,-0.636719 -0.0153,-0.342989 -0.0631,-0.642137 -0.13086,-1.00586 -0.13531,-0.726403 -0.36231,-1.66597 -0.68945,-2.886718 l -0.002,-0.0039 c -0.64824,-2.443163 -1.4066,-5.11529 -2.27539,-8.019531 -0.86721,-2.898977 -1.69725,-5.577621 -2.49218,-8.037109 l -0.002,-0.0059 c -0.39597,-1.237315 -0.71245,-2.206654 -0.95312,-2.916015 -0.24116,-0.710789 -0.31679,-1.006626 -0.56836,-1.509766 -0.67383,-1.347665 -1.4946,-1.313672 -2.17188,-1.476562 -0.67395,-0.162089 -1.43673,-0.25048 -2.38086,-0.316407 -1.84808,-0.15342 -3.72992,-0.205402 -5.64648,-0.154296 z m 0.10547,3.966796 c 1.78231,-0.04753 3.52552,6.65e-4 5.22851,0.142579 a 1.9845734,1.9845734 0 0 0 0.0274,0.002 c 0.7102,0.04932 1.16144,0.120601 1.49218,0.185547 0.073,0.192321 0.0559,0.14562 0.1543,0.435546 0.22804,0.6721 0.54046,1.626919 0.9336,2.855469 a 1.9845734,1.9845734 0 0 0 0.002,0.0059 c 0.78497,2.428528 1.60799,5.081589 2.46875,7.958984 0.85937,2.872764 1.60848,5.508372 2.24414,7.904297 a 1.9845734,1.9845734 0 0 0 0,0.0059 c 0.20566,0.767264 0.29367,1.192088 0.4082,1.695313 -0.63029,0.06567 -1.31491,0.131776 -2.35937,0.179687 a 1.9845734,1.9845734 0 0 0 -0.002,0 c -1.22659,0.05679 -2.12215,0.06359 -2.74804,0.04297 -0.17425,-0.704437 -0.40979,-1.752661 -0.70117,-3.136719 a 1.9845734,1.9845734 0 0 0 -1.92969,-1.576172 l -6.3711,-0.03711 a 1.9845734,1.9845734 0 0 0 -1.91992,1.439453 c -0.11249,0.393729 -0.23872,0.894411 -0.39062,1.527344 a 1.9845734,1.9845734 0 0 0 -0.0176,0.07227 c -0.11948,0.597408 -0.21636,1.027692 -0.26367,1.201172 a 1.9845734,1.9845734 0 0 0 -0.0312,0.132813 c -0.0102,0.05092 -0.0593,0.190155 -0.0859,0.283203 -0.23908,0.01624 -0.36086,0.02768 -0.69727,0.04883 -0.002,7e-5 -0.006,-6.9e-5 -0.008,0 -0.74831,0.02329 -1.62877,0.03669 -2.625,0.03711 -0.003,-7.1e-5 -0.005,7.2e-5 -0.008,0 -0.77366,-0.01866 -1.40591,-0.08664 -2.01563,-0.160156 0.23522,-0.987155 0.63097,-2.473697 1.18164,-4.43164 a 1.9845734,1.9845734 0 0 0 0.002,-0.002 c 1.10072,-3.938145 2.31193,-7.852469 3.63281,-11.742187 l 0.002,-0.0078 c 0.66777,-1.942065 1.22372,-3.405927 1.63086,-4.326171 0.12363,-0.279441 0.18955,-0.392339 0.27735,-0.560547 0.29135,-0.0298 0.99306,-0.135909 2.48828,-0.175782 z m 2.3164,5.154297 c -0.69309,-0.03753 -1.73497,0.04564 -2.45117,1.033203 -0.34326,0.468326 -0.34572,0.637496 -0.41797,0.863282 -0.0745,0.232982 -0.13823,0.476642 -0.20703,0.765625 -0.1382,0.554473 -0.32121,1.38793 -0.56836,2.574218 -0.24762,1.188566 -0.44587,2.155147 -0.5957,2.904297 a 1.9845734,1.9845734 0 0 0 1.98047,2.373047 l 4.14844,-0.07227 a 1.9845734,1.9845734 0 0 0 1.91211,-2.371094 c -0.72918,-3.670173 -1.09423,-5.505974 -1.30079,-6.306641 -0.1081,-0.526072 -0.4546,-0.996614 -0.76562,-1.242187 -0.31287,-0.247037 -0.5788,-0.341306 -0.79297,-0.404297 -0.39776,-0.116989 -0.66339,-0.116474 -0.94141,-0.117188 z"
           id="path27910" />
        <path
           style="color:#000000;-inkscape-font-specification:CHUCKLESOME;stroke:none;stroke-linecap:butt;stroke-linejoin:miter;-inkscape-stroke:none"
           d="m 245.34335,51.305434 q -0.18521,-0.296333 1.48167,-6.223005 1.66687,-5.963713 3.66712,-11.853343 2.0373,-5.926672 2.70405,-6.111881 0.74083,-0.22225 3.51896,-0.296333 2.77813,-0.07408 5.44513,0.148166 2.667,0.185209 2.92629,0.703793 0.22225,0.4445 1.40759,4.14867 1.18533,3.667128 2.48179,8.001007 1.29646,4.333879 2.25955,7.963965 0.96308,3.593045 0.70379,3.778253 -0.4445,0.407459 -4.48205,0.592667 -4.0005,0.185209 -4.37092,-0.185208 -0.22225,-0.259292 -1.11125,-4.482046 l -6.37117,-0.03704 q -0.14817,0.518583 -0.37042,1.444626 -0.18521,0.926042 -0.29633,1.333501 -0.0741,0.370417 -0.25929,0.889001 -0.14817,0.481542 -0.33338,0.703792 -0.18521,0.185209 -0.4445,0.22225 -0.4445,0.03704 -1.62983,0.111125 -1.18534,0.03704 -2.74109,0.03704 -1.55575,-0.03704 -2.77813,-0.22225 -1.22237,-0.22225 -1.40758,-0.666751 z m 11.44588,-8.815924 4.14867,-0.07408 q -1.11125,-5.593297 -1.29646,-6.297089 -0.037,-0.185209 -0.6297,-0.185209 -0.59267,-0.03704 -0.77788,0.222251 -0.11113,0.148166 -0.29633,0.926042 -0.18521,0.740834 -0.55563,2.518836 -0.37042,1.778001 -0.59267,2.889252 z"
           id="path27912" />
      </g>
      <g
         id="path27849">
        <path
           style="color:#000000;-inkscape-font-specification:CHUCKLESOME;fill:#5a4870;stroke:none;stroke-linecap:butt;stroke-linejoin:miter;-inkscape-stroke:none"
           d="m 275.63086,24.392578 c -1.51368,0.03784 -2.70973,0.101428 -3.64258,0.205078 -0.46642,0.05183 -0.86452,0.111444 -1.24414,0.201172 -0.37266,0.08808 -0.71955,0.131663 -1.28125,0.572266 -0.65427,0.5088 -0.80077,0.989033 -0.94336,1.40625 -0.14423,0.422022 -0.22997,0.840058 -0.30273,1.320312 -0.14554,0.96051 -0.22351,2.158217 -0.26172,3.673828 -0.0382,1.502201 -0.023,2.662995 0.0742,3.589844 0.0486,0.463425 0.10921,0.863432 0.25586,1.306641 0.14184,0.428691 0.35379,1.130079 1.36914,1.552734 a 1.9845734,1.9845734 0 0 0 0.0156,0.03125 c 0.012,0.0049 0.0213,0.0011 0.0332,0.0059 0.0108,0.0042 0.0105,0.01151 0.0215,0.01563 l 0.002,-0.01172 c 0.24766,0.09787 0.47962,0.07343 0.69727,0.121093 l -0.004,0.01563 a 1.9845734,1.9845734 0 0 0 0.0254,-0.01172 c 0.46438,0.09934 0.89761,0.218009 1.49024,0.257812 0.36734,0.02467 0.95784,0.02113 1.40625,0.03516 l -0.0527,1.75 a 1.9845734,1.9845734 0 0 0 0,0.002 c -0.075,2.551404 -0.0871,5.11396 -0.0371,7.689453 a 1.9845734,1.9845734 0 0 0 0,0.01953 c 0.0382,1.309966 0.10045,2.31474 0.21289,3.109375 0.0562,0.397318 0.11586,0.73416 0.25196,1.125 0.068,0.19542 0.14765,0.408007 0.34375,0.6875 0.19142,0.27283 0.57084,0.672101 1.2207,0.849609 0.69787,0.206949 1.14823,0.206633 1.93945,0.238282 0.82703,0.03308 1.89262,0.04183 3.22071,0.0293 1.33335,-0.01258 2.38631,-0.04616 3.20312,-0.107421 0.40841,-0.03063 0.75508,-0.06815 1.08008,-0.123047 0.325,-0.0549 0.57998,-0.05268 1.12695,-0.365235 a 1.9845734,1.9845734 0 0 0 0.15235,-0.09766 c 0.73823,-0.51673 0.75953,-0.923904 0.83984,-1.181641 0.0803,-0.257736 0.10895,-0.449741 0.13477,-0.65039 0.0516,-0.401298 0.0695,-0.825186 0.0762,-1.351563 0.0134,-1.052752 -0.0328,-2.488422 -0.13282,-4.363281 a 1.9845734,1.9845734 0 0 0 -0.002,-0.03711 l -0.5039,-6.988282 c 0.6032,0.01014 1.20019,0.03445 1.82031,0 a 1.9845734,1.9845734 0 0 0 0.0547,-0.0039 c 0.54148,-0.04512 1.01343,-0.109193 1.52734,-0.289062 0.49653,-0.173786 1.22186,-0.525077 1.60156,-1.455078 0.43675,-0.91727 0.34955,-1.378291 0.375,-2.199219 0.0274,-0.88316 0.006,-2.008302 -0.0566,-3.419922 -0.0507,-1.408349 -0.12805,-2.527868 -0.24805,-3.410156 -0.0603,-0.443676 -0.12673,-0.827085 -0.23437,-1.205078 -0.10192,-0.357911 -0.20182,-0.739595 -0.6875,-1.257813 -0.67559,-0.776212 -1.03457,-0.685112 -1.36914,-0.767578 -0.35609,-0.08777 -0.7169,-0.143474 -1.15235,-0.195313 -0.8704,-0.103619 -2.01917,-0.179326 -3.50195,-0.242187 h -0.002 c -2.93445,-0.125357 -5.9058,-0.15133 -8.91211,-0.07617 z m 0.0996,3.966797 c 2.91969,-0.07299 5.80111,-0.04729 8.64453,0.07422 1.42036,0.06018 2.49406,0.135871 3.17969,0.216797 10e-4,0.01059 0.002,0.01069 0.004,0.02148 0.0892,0.656051 0.16678,1.689215 0.21485,3.035156 a 1.9845734,1.9845734 0 0 0 0,0.01758 c 0.0605,1.354158 0.0767,2.409509 0.0547,3.119141 -0.001,0.04578 -0.0122,0.06297 -0.0156,0.107422 -0.73901,0.03417 -1.45924,0.04219 -2.15039,0.002 l -1.21289,-0.107422 a 1.9845734,1.9845734 0 0 0 -2.1543,2.119141 l 0.66406,9.185547 0.002,0.03906 c 0.0925,1.746275 0.12878,3.054011 0.12109,3.933594 -0.65887,0.04278 -1.51126,0.07687 -2.67969,0.08789 -1.28952,0.01216 -2.3051,0.0013 -3.02148,-0.02734 -0.0141,-5.66e-4 -0.006,-0.0013 -0.0195,-0.002 -0.0558,-0.534049 -0.11149,-1.152465 -0.14063,-2.136719 -0.0488,-2.510908 -0.0379,-5.010473 0.0352,-7.496094 v -0.002 l 0.11133,-3.740234 a 1.9845734,1.9845734 0 0 0 -1.98242,-2.042969 c -1.35632,0 -2.4301,-0.02752 -3.1836,-0.07813 -0.16867,-0.01133 -0.0891,-0.0048 -0.23047,-0.02344 -0.0511,-0.624196 -0.0814,-1.510957 -0.0488,-2.791015 0.0359,-1.423027 0.11929,-2.508411 0.22071,-3.177735 0.009,-0.05789 0.0143,-0.05795 0.0234,-0.109375 0.10097,-0.01442 0.13717,-0.02718 0.26171,-0.04102 0.73403,-0.08156 1.85308,-0.147353 3.30274,-0.183594 z m -4.61328,6.197266 c 0.0296,0.01109 0.025,0.02375 0.0527,0.03516 l -0.004,0.01758 a 1.9845734,1.9845734 0 0 0 -0.0488,-0.05273 z"
           id="path27916" />
        <path
           style="color:#000000;-inkscape-font-specification:CHUCKLESOME;stroke:none;stroke-linecap:butt;stroke-linejoin:miter;-inkscape-stroke:none"
           d="m 270.42051,36.414672 q -0.59267,-0.222251 -0.48155,-4.593171 0.11113,-4.407962 0.74084,-4.889504 0.55562,-0.444501 5.00063,-0.555626 4.445,-0.111125 8.77888,0.07408 4.37092,0.185208 4.66725,0.555625 0.48155,0.481542 0.62971,4.630212 0.18521,4.148671 -0.14816,4.77838 -0.14817,0.407458 -1.48167,0.518583 -1.3335,0.07408 -2.59292,0 L 284.2741,36.82213 q 0,0 0.66675,9.223383 0.29634,5.556255 -0.0741,5.815547 -0.51859,0.296333 -4.44501,0.333375 -3.92642,0.03704 -4.63021,-0.185208 -0.4445,-0.111125 -0.55562,-3.92642 -0.0741,-3.815295 0.037,-7.593549 l 0.11112,-3.741211 q -4.14867,0 -4.96358,-0.333375 z"
           id="path27918" />
      </g>
      <g
         id="path27851">
        <path
           style="color:#000000;-inkscape-font-specification:CHUCKLESOME;fill:#5a4870;stroke:none;stroke-linecap:butt;stroke-linejoin:miter;-inkscape-stroke:none"
           d="m 302.16602,24.355469 c -3.43571,0 -6.05545,0.03828 -7.89649,0.121093 -0.92052,0.04141 -1.64063,0.09203 -2.21875,0.164063 -0.28906,0.03602 -0.53794,0.07386 -0.81055,0.142578 -0.2726,0.06872 -0.55603,-0.0477 -1.23828,0.691406 a 1.9845734,1.9845734 0 0 0 -0.15625,0.19336 c -0.59954,0.839261 -0.45142,1.054941 -0.51367,1.474609 -0.0622,0.419668 -0.10465,0.902174 -0.14062,1.494141 -0.072,1.183933 -0.1106,2.795327 -0.12305,4.876953 a 1.9845734,1.9845734 0 0 0 0,0.01172 c 0,4.13514 0.11164,8.234655 0.33594,12.296875 a 1.9845734,1.9845734 0 0 0 0.002,0.01172 c 0.12518,2.040349 0.26084,3.592433 0.42383,4.726563 0.0815,0.567065 0.16202,1.020234 0.29297,1.460937 0.0655,0.220352 0.13391,0.43641 0.29687,0.72461 0.16263,0.287607 0.42703,0.805451 1.30664,1.058593 0.82579,0.241152 1.19354,0.191183 2.15625,0.242188 0.96798,0.05128 2.27549,0.09356 3.94141,0.130859 a 1.9845734,1.9845734 0 0 0 0.0156,0 c 3.36789,0.04989 6.71178,0.01346 10.03125,-0.111328 a 1.9845734,1.9845734 0 0 0 0.0137,0 c 1.6814,-0.07585 2.9685,-0.179149 3.95703,-0.33789 0.49426,-0.07937 0.90596,-0.163631 1.34765,-0.328125 0.22085,-0.08225 0.45469,-0.177959 0.74219,-0.388672 0.27986,-0.205113 0.6646,-0.591317 0.83984,-1.228516 0.3663,-1.230011 0.35504,-2.500805 0.30469,-4.564453 -0.0259,-1.060238 -0.0795,-1.892488 -0.1914,-2.595703 -0.0559,-0.351608 -0.11739,-0.668794 -0.25586,-1.033203 -0.13502,-0.35532 -0.30847,-0.891119 -1.125,-1.322266 -0.55541,-0.301398 -0.72226,-0.262257 -0.93555,-0.291016 -0.2258,-0.03044 -0.44953,-0.0465 -0.71289,-0.06055 -0.4728,-0.02522 -1.11216,-0.03491 -1.84961,-0.03711 7.3e-4,-0.0066 0.009,-0.02249 0.01,-0.0293 0.0328,-0.22982 0.0537,-0.46922 0.0742,-0.755859 0.041,-0.573278 0.0725,-1.325852 0.0977,-2.292969 a 1.9845734,1.9845734 0 0 0 0,-0.002 c 0.0251,-0.980569 0.0314,-1.738313 0.0176,-2.3125 -0.007,-0.287093 -0.0171,-0.523321 -0.043,-0.763672 -0.001,-0.01102 -0.005,-0.02608 -0.006,-0.03711 0.71338,-0.0043 1.4054,-0.0081 1.86133,-0.0293 0.2947,-0.01371 0.53445,-0.02979 0.77539,-0.06055 0.12047,-0.01538 0.23716,-0.03214 0.41015,-0.07617 0.173,-0.04403 0.38449,0.05691 0.9961,-0.554687 a 1.9845734,1.9845734 0 0 0 0.16406,-0.183594 c 0.52897,-0.680102 0.44997,-0.946963 0.49805,-1.246094 0.0481,-0.299131 0.0697,-0.589185 0.084,-0.925781 0.0286,-0.673191 0.0205,-1.521676 -0.0176,-2.599609 -0.0377,-1.067836 -0.0821,-1.90035 -0.13671,-2.535157 -0.0273,-0.317403 -0.0557,-0.581938 -0.0977,-0.835937 -0.0419,-0.254 0.0625,-0.373483 -0.36328,-1.054688 -0.55524,-0.888377 -0.91111,-0.797209 -1.10547,-0.863281 -0.19436,-0.06607 -0.31397,-0.08637 -0.43164,-0.107422 -0.23535,-0.04211 -0.44699,-0.06464 -0.70703,-0.08594 -0.52008,-0.0426 -1.20379,-0.07244 -2.09571,-0.09766 -1.78382,-0.05043 -4.38217,-0.07422 -7.82421,-0.07422 z m -10.43946,29.449218 c 0.002,5.22e-4 0.002,0.0014 0.004,0.002 a 1.9845734,1.9845734 0 0 0 0.43164,0.07227 z m 10.43946,-25.480468 c 3.423,0 6.00245,0.02391 7.71289,0.07227 0.45068,0.01274 0.66612,0.03124 0.99218,0.04687 0.0315,0.482385 0.0633,0.95347 0.0899,1.707032 0.0245,0.692918 0.0165,1.099351 0.0137,1.554687 -0.41976,0.0088 -0.75217,0.02148 -1.36328,0.02148 -1.98391,1e-6 -3.94324,-0.02527 -5.87696,-0.07422 l -2.92578,-0.07422 a 1.9845734,1.9845734 0 0 0 -2.03515,1.949219 l -0.0371,2.111328 a 1.9845734,1.9845734 0 0 0 2.04492,2.019531 c 2.42219,-0.07377 4.24442,-0.111328 5.43945,-0.111328 0.004,0 0.004,-1e-6 0.008,0 -0.002,0.373328 0.003,0.636122 -0.01,1.150391 -0.0161,0.620029 -0.038,0.984517 -0.0586,1.402343 -0.27776,0.01159 -0.51025,0.02351 -0.83399,0.03516 h -2.04883 -1.70507 -0.70313 a 1.9845734,1.9845734 0 0 0 -1.98437,2.05664 l 0.0742,2.03711 a 1.9845734,1.9845734 0 0 0 2.05079,1.912109 l 8.82812,-0.296875 c 0.514,3.79e-4 0.82192,0.01392 1.17188,0.02344 0.0395,0.404585 0.0831,0.773932 0.0996,1.449219 0.0355,1.456579 -0.0487,2.010102 -0.0996,2.509766 -0.71336,0.105135 -1.78824,0.205346 -3.28907,0.273437 -3.24473,0.121983 -6.51365,0.159906 -9.80859,0.111328 -1.64314,-0.03679 -2.92191,-0.07946 -3.81836,-0.126953 -0.23109,-0.01224 -0.12735,-0.0027 -0.32422,-0.02344 -0.005,-0.03198 -0.007,-0.03108 -0.0117,-0.06445 -0.13334,-0.927856 -0.26885,-2.421404 -0.39062,-4.40625 -0.2195,-3.979876 -0.32987,-7.997929 -0.33008,-12.052735 v -0.0059 c 0,-0.002 0,-0.0039 0,-0.0059 0.0123,-2.034833 0.0535,-3.600166 0.11719,-4.648438 0.01,-0.156761 0.0207,-0.210598 0.0312,-0.34375 0.37187,-0.03179 0.69008,-0.06608 1.26172,-0.0918 1.7273,-0.0777 4.31409,-0.117187 7.71875,-0.117187 z m 7.51171,6.109375 0.22657,0.353515 c -0.0512,-0.102425 -0.0924,-0.09429 -0.14258,-0.175781 -0.0515,-0.08087 -2e-5,-0.07277 -0.084,-0.177734 z m -17.28906,15.482422 0.43164,0.07422 c 0.002,4.71e-4 3.1e-4,0.0015 0.002,0.002 a 1.9845734,1.9845734 0 0 0 -0.4336,-0.07617 z"
           id="path27922" />
        <path
           style="color:#000000;-inkscape-font-specification:CHUCKLESOME;stroke:none;stroke-linecap:butt;stroke-linejoin:miter;-inkscape-stroke:none"
           d="m 292.27506,51.898102 q -0.51858,-0.148167 -0.889,-6.185964 -0.33338,-6.037797 -0.33338,-12.186719 0.037,-6.185964 0.40746,-6.704547 0.4445,-0.481542 10.70505,-0.481542 10.29759,0 10.4828,0.296333 0.18521,0.296334 0.29634,3.444878 0.11112,3.148545 -0.14817,3.48192 -0.14817,0.148167 -3.18559,0.148167 -3.00037,0 -5.92667,-0.07408 l -2.92629,-0.07408 -0.037,2.111377 q 7.29721,-0.222251 7.40834,0 0.14816,0.185208 0.0741,3.074461 -0.0741,2.85221 -0.22225,3.111502 -0.0741,0.111125 -0.85196,0.185209 -0.74083,0.03704 -1.778,0.07408 -1.03717,0 -2.07434,0 -1.00012,0 -1.70391,0 h -0.7038 l 0.0741,2.037294 q 0,0 8.85296,-0.296334 2.51884,0 2.77813,0.148167 0.4445,0.22225 0.51858,3.259669 0.0741,3.037419 -0.22225,4.000504 -0.14816,0.592667 -5.07471,0.814917 -4.92655,0.185209 -9.92717,0.111125 -4.96359,-0.111125 -5.5933,-0.296333 z"
           id="path27924" />
      </g>
      <g
         id="path27853">
        <path
           style="color:#000000;-inkscape-font-specification:CHUCKLESOME;fill:#5a4870;stroke:none;stroke-linecap:butt;stroke-linejoin:miter;-inkscape-stroke:none"
           d="m 319.68555,24.761719 c -1.97879,0 -3.15997,-0.02538 -4.42774,0.470703 a 1.9845734,1.9845734 0 0 0 -0.16406,0.07227 c -0.70668,0.353344 -0.86987,0.7597 -1.00586,1.025391 -0.13599,0.265691 -0.20354,0.476811 -0.26562,0.695313 -0.12418,0.437004 -0.20601,0.899631 -0.28711,1.470703 -0.1622,1.142144 -0.29866,2.694864 -0.42383,4.722656 a 1.9845734,1.9845734 0 0 0 0,0.01172 c -0.22497,4.049495 -0.29959,8.111757 -0.22461,12.185547 a 1.9845734,1.9845734 0 0 0 0,0.01172 c 0.0502,2.046661 0.13868,3.618069 0.2832,4.794922 0.0723,0.588427 0.15036,1.071364 0.28906,1.542969 0.13871,0.471605 0.0778,1.146461 1.34375,1.742187 a 1.9845734,1.9845734 0 0 0 0.84571,0.189454 l -0.82617,-0.179688 c 0.76435,0.350333 1.37248,0.404916 2.24414,0.494141 0.87166,0.08922 1.94248,0.140666 3.24804,0.166015 a 1.9845734,1.9845734 0 0 0 0.0195,0.002 c 1.30737,0.01269 2.33017,-0.0097 3.14063,-0.08203 0.40523,-0.03618 0.75286,-0.08024 1.11719,-0.169922 0.36433,-0.08968 0.79774,-0.05617 1.44531,-0.847656 a 1.9845734,1.9845734 0 0 0 0.11523,-0.15625 c 0.37662,-0.564917 0.33744,-0.757632 0.38282,-0.994141 0.0454,-0.236508 0.072,-0.461854 0.0957,-0.720703 0.0474,-0.517696 0.0766,-1.159603 0.0957,-1.96875 0.0105,-0.44571 -0.01,-1.342605 -0.006,-1.888672 0.24923,0.221857 0.50348,0.454868 0.73438,0.625 0.34167,0.25176 0.41947,0.646485 1.67578,0.646485 0.67989,0 0.95083,-0.197857 1.18555,-0.330078 0.23472,-0.132222 0.4085,-0.262126 0.58593,-0.404297 0.32003,-0.256417 0.65321,-0.577553 1.02344,-0.949219 0.0123,0.495984 0.0249,0.986214 0.0371,1.488281 a 1.9845734,1.9845734 0 0 0 0.002,0.05078 c 0.0498,0.996853 0.0998,1.860402 0.15039,2.59375 0.0269,0.390477 0.0549,0.700636 0.10352,1.001953 0.0243,0.150658 0.0493,0.294245 0.11523,0.503906 0.0647,0.205866 -0.0268,0.552516 0.81836,1.130859 0.50222,0.349338 0.6844,0.324897 0.85157,0.359375 0.17222,0.03552 0.30868,0.05218 0.45312,0.06641 0.28889,0.02845 0.60485,0.04279 0.99609,0.05273 0.7825,0.01989 1.84857,0.0152 3.23438,-0.0098 a 1.9845734,1.9845734 0 0 0 0.0176,0 c 1.38494,-0.03743 2.44685,-0.0799 3.2207,-0.132812 0.38692,-0.02646 0.69647,-0.05439 0.97852,-0.09375 0.14102,-0.01968 0.27336,-0.03981 0.44336,-0.08203 0.17,-0.04222 0.33051,0.03414 0.9082,-0.447266 a 1.9845734,1.9845734 0 0 0 0.70898,-1.386719 c 0.0668,-0.968467 0.0658,-3.029949 0.041,-6.669922 -0.0249,-3.685366 -0.13536,-7.648942 -0.33399,-11.894531 -0.0996,-2.14262 -0.20567,-3.765473 -0.32421,-4.917969 -0.0593,-0.576247 -0.11753,-1.02585 -0.20313,-1.433593 -0.0428,-0.203872 -0.0837,-0.389763 -0.19141,-0.65625 -0.10769,-0.266487 -0.0982,-0.904257 -1.36132,-1.283204 a 1.9845734,1.9845734 0 0 0 -0.24414,-0.05664 c -0.95335,-0.158891 -2.20448,-0.17561 -4.26563,-0.175781 h -0.008 c -2.12725,-0.02537 -3.63603,0.03932 -4.91016,0.414062 a 1.9845734,1.9845734 0 0 0 -0.27929,0.105469 c -0.62383,0.291116 -0.91618,0.5995 -1.3086,0.984375 -0.39242,0.384874 -0.8142,0.851791 -1.29687,1.425781 a 1.9845734,1.9845734 0 0 0 -0.0156,0.02148 c -0.6449,0.788218 -1.05256,1.329084 -1.48242,1.894532 -0.35804,-0.501095 -0.72981,-1.000407 -1.13672,-1.496094 -0.005,-0.0066 -0.0106,-0.01097 -0.0156,-0.01758 -0.47978,-0.638096 -0.96998,-1.211525 -1.47852,-1.722656 -0.5297,-0.559554 -0.93558,-1.019359 -1.82227,-1.341797 a 1.9845734,1.9845734 0 0 0 -0.0898,-0.0293 c -1.19713,-0.371526 -2.55024,-0.423828 -4.55273,-0.423828 z m 0,3.96875 c 1.81234,0 3.03454,0.16299 3.30664,0.238281 -0.246,-0.08914 -0.0386,-0.01982 0.29101,0.328125 a 1.9845734,1.9845734 0 0 0 0.0371,0.03906 c 0.36655,0.366543 0.75157,0.812635 1.14844,1.341797 a 1.9845734,1.9845734 0 0 0 0.0586,0.07422 c 0.43654,0.528438 0.83536,1.052019 1.19727,1.572266 a 1.9845734,1.9845734 0 0 0 0.0586,0.08008 c 0.39409,0.509996 0.70932,0.937693 0.94922,1.285156 l 0.3457,0.554688 a 1.9845734,1.9845734 0 0 0 3.31836,0.07227 c 0.26144,-0.380272 0.60027,-0.866299 1.01172,-1.447265 l 0.01,-0.01172 c 0.3974,-0.551277 1.03942,-1.375203 1.89844,-2.425781 l 0.006,-0.0059 c 0.005,-0.0067 0.006,-0.0089 0.0117,-0.01563 0.42069,-0.49908 0.77632,-0.886502 1.02149,-1.126953 0.14477,-0.141984 0.0848,-0.09844 0.12109,-0.126953 0.47623,-0.11578 1.69231,-0.26272 3.5586,-0.240234 a 1.9845734,1.9845734 0 0 0 0.0234,0 c 1.30039,0 1.70737,0.04339 2.34375,0.07813 0.10295,1.009246 0.20752,2.571082 0.30469,4.660156 0.19649,4.199909 0.30559,8.114092 0.33008,11.738281 0.0183,2.682118 -0.005,3.699971 -0.0234,4.71875 -0.64822,0.03524 -1.34408,0.07064 -2.41601,0.09961 -1.12832,0.02017 -1.89899,0.01689 -2.55664,0.0078 -0.0363,-0.572742 -0.0727,-1.159167 -0.10938,-1.888672 -2.4e-4,-0.0099 2.4e-4,-0.01942 0,-0.0293 -4.2e-4,-0.0083 -0.002,-0.01312 -0.002,-0.02148 -0.0243,-0.995357 -0.0479,-1.979659 -0.0723,-2.951172 -4.7e-4,-0.950012 -0.0131,-1.75475 -0.0371,-2.431641 v -1.037109 a 1.9845734,1.9845734 0 0 0 -3.49414,-1.287109 c -1.34182,1.573589 -2.39525,2.745208 -3.11719,3.478515 -0.0535,0.05439 -0.0672,0.05984 -0.11718,0.109375 -0.67822,-0.679474 -1.32207,-1.355689 -1.92774,-2.03125 a 1.9845734,1.9845734 0 0 0 -0.0234,-0.02734 l -0.96289,-1.037109 a 1.9845734,1.9845734 0 0 0 -3.4375,1.384766 c 0.0492,2.936806 0.0534,5.179365 0.0176,6.697265 -0.0106,0.449608 -0.0298,0.692101 -0.0469,1.007813 -0.57427,0.03682 -1.28084,0.0663 -2.32032,0.05664 -1.23795,-0.02404 -2.22348,-0.07715 -2.91992,-0.148437 -0.21986,-0.02251 -0.15264,-0.01875 -0.31445,-0.04883 -0.0182,-0.114032 -0.0296,-0.132529 -0.0469,-0.273438 -0.11476,-0.934521 -0.2073,-2.431623 -0.25585,-4.410156 l 0.002,0.01172 c -0.0731,-3.972681 -2.7e-4,-7.931271 0.21875,-11.878906 v -0.01172 c 0.12152,-1.964972 0.25684,-3.45444 0.39062,-4.396485 0.0128,-0.08993 0.0203,-0.09975 0.0332,-0.179687 0.41205,-0.05084 0.84868,-0.144531 2.1875,-0.144531 z m -2.44922,21.740234 c 0.0888,0.151749 0.0478,0.231956 0.0312,0.175781 -0.006,-0.0205 -0.0226,-0.138789 -0.0312,-0.175781 z"
           id="path27928" />
        <path
           style="color:#000000;-inkscape-font-specification:CHUCKLESOME;stroke:none;stroke-linecap:butt;stroke-linejoin:miter;-inkscape-stroke:none"
           d="m 315.64837,51.712893 q -0.62971,-0.296334 -0.77788,-6.33413 -0.11112,-6.037797 0.22225,-12.038552 0.37042,-6.000756 0.889,-6.260047 0.85196,-0.333376 3.70417,-0.333376 2.88926,0 3.96347,0.333376 0.40745,0.148166 1.0742,0.851959 0.66676,0.66675 1.33351,1.555751 0.70379,0.851959 1.29646,1.703918 0.6297,0.814917 1.03716,1.407585 l 0.37042,0.592667 q 0.40746,-0.592667 1.03717,-1.481668 0.66675,-0.926043 2.00025,-2.555877 1.37054,-1.629835 1.92617,-1.889127 1.25942,-0.370417 4.33388,-0.333375 3.07446,0 3.96346,0.148167 0.37041,0.111125 0.66675,6.482297 0.29633,6.33413 0.33337,11.816302 0.0371,5.445129 -0.037,6.519339 -0.22225,0.185208 -4.33388,0.296333 -4.11163,0.07408 -4.37092,-0.111125 -0.11112,-0.07408 -0.18521,-1.148293 -0.0741,-1.074209 -0.14816,-2.555877 -0.037,-1.518709 -0.0741,-3.000377 0,-1.481668 -0.037,-2.481794 v -1.037168 q -4.07458,4.778379 -4.70429,4.778379 -0.29634,0 -1.40759,-1.037167 -1.07421,-1.074209 -2.03729,-2.148419 l -0.96309,-1.037167 q 0.14817,8.852966 -0.22225,9.408591 -0.33337,0.407459 -4.14867,0.370417 -3.81529,-0.07408 -4.70429,-0.481542 z"
           id="path27930" />
      </g>
      <g
         id="path27855">
        <path
           style="color:#000000;-inkscape-font-specification:CHUCKLESOME;fill:#5a4870;stroke:none;stroke-linecap:butt;stroke-linejoin:miter;-inkscape-stroke:none"
           d="m 355.45312,24.837891 c -1.89013,0.0504 -2.93218,0.05522 -4.01562,0.376953 -1.27165,0.361238 -1.30263,0.900014 -1.55469,1.304687 -0.25396,0.407732 -0.47395,0.858288 -0.7207,1.416016 -0.49351,1.115455 -1.06698,2.644419 -1.75586,4.648437 a 1.9845734,1.9845734 0 0 0 -0.004,0.0078 c -1.34511,3.960601 -2.57816,7.946144 -3.69922,11.957031 -0.5586,1.986295 -0.96402,3.507505 -1.22265,4.59375 -0.12943,0.543611 -0.22269,0.972608 -0.2832,1.34375 -0.0303,0.185571 -0.0526,0.349965 -0.0625,0.564453 -0.009,0.192978 -0.14472,0.410843 0.24023,1.121094 0.34572,0.71967 0.89838,1.100818 1.35352,1.316406 0.48209,0.228362 0.94371,0.342216 1.45703,0.435547 a 1.9845734,1.9845734 0 0 0 0.0586,0.0098 c 0.91883,0.139217 1.92386,0.217868 3.02734,0.24414 a 1.9845734,1.9845734 0 0 0 0.0469,0.002 c 1.05291,0 1.98737,-0.01352 2.80469,-0.03906 a 1.9845734,1.9845734 0 0 0 0.0605,-0.002 c 0.79536,-0.04971 1.33919,-0.08751 1.67188,-0.115235 a 1.9845734,1.9845734 0 0 0 0.11523,-0.01367 c 0.56575,-0.08082 1.16231,-0.379103 1.56641,-0.783204 a 1.9845734,1.9845734 0 0 0 0.12109,-0.132812 c 0.40124,-0.481479 0.55529,-0.914482 0.69532,-1.367188 0.13178,-0.374597 0.23983,-0.724687 0.3125,-1.080078 0.0824,-0.313486 0.16807,-0.708985 0.26757,-1.199218 l 3.24024,0.01758 c 0.1303,0.585317 0.28385,1.319472 0.38672,1.734375 0.0979,0.39482 0.18246,0.710799 0.26757,0.984375 0.0426,0.136788 0.084,0.261516 0.14258,0.40625 0.0586,0.144733 0.0533,0.271127 0.39844,0.673828 a 1.9845734,1.9845734 0 0 0 0.10352,0.111328 c 0.72239,0.722384 1.10033,0.635491 1.46289,0.701172 0.36256,0.06568 0.71698,0.09167 1.13476,0.109375 0.83556,0.0354 1.9041,0.01634 3.26953,-0.04687 l -0.002,0.002 c 1.37746,-0.06319 2.46131,-0.143822 3.30859,-0.255859 0.42365,-0.05602 0.78514,-0.118287 1.13868,-0.210938 0.32713,-0.08573 0.67123,-0.16213 1.18945,-0.597656 0.62119,-0.50464 0.70935,-1.002637 0.75586,-1.269531 0.0498,-0.285845 0.0428,-0.465225 0.0351,-0.636719 -0.0153,-0.342989 -0.0631,-0.642137 -0.13085,-1.00586 -0.13531,-0.726403 -0.36427,-1.66597 -0.69141,-2.886718 l -0.002,-0.0039 c -0.64824,-2.443163 -1.40465,-5.11529 -2.27344,-8.019531 -0.86722,-2.898977 -1.69921,-5.577621 -2.49414,-8.037109 l -0.002,-0.0059 c -0.39596,-1.237315 -0.71244,-2.206654 -0.95312,-2.916015 -0.24116,-0.710789 -0.31484,-1.006626 -0.56641,-1.509766 -0.67382,-1.347665 -1.49654,-1.313672 -2.17382,-1.476562 -0.67395,-0.162089 -1.43479,-0.25048 -2.37891,-0.316407 -1.84809,-0.15342 -3.72993,-0.205402 -5.64649,-0.154296 z m 0.10547,3.966796 c 1.78231,-0.04753 3.52358,6.65e-4 5.22657,0.142579 a 1.9845734,1.9845734 0 0 0 0.0273,0.002 c 0.71112,0.04938 1.16354,0.120538 1.49414,0.185547 0.073,0.192293 0.056,0.145797 0.1543,0.435546 0.22803,0.6721 0.54045,1.626919 0.93359,2.855469 a 1.9845734,1.9845734 0 0 0 0.002,0.0059 c 0.78498,2.428528 1.60799,5.081589 2.46875,7.958984 0.85938,2.872764 1.60653,5.508372 2.24219,7.904297 a 1.9845734,1.9845734 0 0 0 0.002,0.0059 c 0.20566,0.767264 0.29368,1.192088 0.40821,1.695313 -0.63033,0.06568 -1.31669,0.131768 -2.36133,0.179687 -1.22577,0.05675 -2.12214,0.06353 -2.74805,0.04297 -0.17424,-0.704437 -0.40979,-1.752661 -0.70117,-3.136719 a 1.9845734,1.9845734 0 0 0 -1.92969,-1.576172 l -6.37109,-0.03711 a 1.9845734,1.9845734 0 0 0 -1.91992,1.439453 c -0.1125,0.393729 -0.24068,0.894411 -0.39258,1.527344 a 1.9845734,1.9845734 0 0 0 -0.0156,0.07227 c -0.11948,0.597408 -0.21831,1.027692 -0.26562,1.201172 a 1.9845734,1.9845734 0 0 0 -0.0312,0.132813 c -0.0102,0.05086 -0.0574,0.190288 -0.084,0.283203 -0.23931,0.01625 -0.36229,0.02765 -0.69922,0.04883 -0.002,7e-5 -0.006,-6.9e-5 -0.008,0 -0.74776,0.02328 -1.62774,0.03667 -2.62304,0.03711 -0.003,-7e-5 -0.005,7.2e-5 -0.008,0 -0.77306,-0.01865 -1.40624,-0.08673 -2.01562,-0.160156 0.23522,-0.987155 0.63097,-2.473697 1.18164,-4.43164 a 1.9845734,1.9845734 0 0 0 0,-0.002 c 1.10144,-3.940721 2.31483,-7.857769 3.63672,-11.75 0.66763,-1.941632 1.22183,-3.406064 1.62891,-4.326171 0.12369,-0.279593 0.19148,-0.392316 0.27929,-0.560547 0.29136,-0.0298 0.99306,-0.135909 2.48828,-0.175782 z m 2.31641,5.154297 c -0.69371,-0.03757 -1.7369,0.04512 -2.45313,1.035157 -0.34131,0.466309 -0.34585,0.635956 -0.41796,0.861328 -0.0746,0.232982 -0.13823,0.476642 -0.20704,0.765625 -0.13819,0.554476 -0.32125,1.388118 -0.56835,2.574218 -0.24762,1.188566 -0.44588,2.155147 -0.59571,2.904297 a 1.9845734,1.9845734 0 0 0 1.98242,2.373047 l 4.14844,-0.07227 a 1.9845734,1.9845734 0 0 0 1.91016,-2.371094 c -0.72917,-3.670173 -1.09423,-5.505974 -1.30078,-6.306641 -0.10811,-0.52608 -0.45461,-0.996616 -0.76563,-1.242187 -0.31287,-0.247035 -0.57685,-0.341308 -0.79101,-0.404297 -0.39776,-0.116987 -0.6634,-0.116474 -0.94141,-0.117188 z"
           id="path27934" />
        <path
           style="color:#000000;-inkscape-font-specification:CHUCKLESOME;stroke:none;stroke-linecap:butt;stroke-linejoin:miter;-inkscape-stroke:none"
           d="m 344.13342,51.305434 q -0.18521,-0.296333 1.48167,-6.223005 1.66687,-5.963713 3.66712,-11.853343 2.0373,-5.926672 2.70405,-6.111881 0.74083,-0.22225 3.51896,-0.296333 2.77813,-0.07408 5.44513,0.148166 2.667,0.185209 2.92629,0.703793 0.22225,0.4445 1.40759,4.14867 1.18533,3.667128 2.48179,8.001007 1.29646,4.333879 2.25955,7.963965 0.96308,3.593045 0.70379,3.778253 -0.4445,0.407459 -4.48205,0.592667 -4.0005,0.185209 -4.37092,-0.185208 -0.22225,-0.259292 -1.11125,-4.482046 l -6.37117,-0.03704 q -0.14817,0.518583 -0.37042,1.444626 -0.18521,0.926042 -0.29633,1.333501 -0.0741,0.370417 -0.25929,0.889001 -0.14817,0.481542 -0.33338,0.703792 -0.18521,0.185209 -0.4445,0.22225 -0.4445,0.03704 -1.62983,0.111125 -1.18534,0.03704 -2.74109,0.03704 -1.55575,-0.03704 -2.77813,-0.22225 -1.22237,-0.22225 -1.40758,-0.666751 z m 11.44588,-8.815924 4.14867,-0.07408 q -1.11125,-5.593297 -1.29646,-6.297089 -0.037,-0.185209 -0.62971,-0.185209 -0.59266,-0.03704 -0.77787,0.222251 -0.11113,0.148166 -0.29633,0.926042 -0.18521,0.740834 -0.55563,2.518836 -0.37042,1.778001 -0.59267,2.889252 z"
           id="path27936" />
      </g>
      <g
         id="path27857">
        <path
           style="color:#000000;-inkscape-font-specification:CHUCKLESOME;fill:#5a4870;stroke:none;stroke-linecap:butt;stroke-linejoin:miter;-inkscape-stroke:none"
           d="m 374.42187,24.392578 c -1.51367,0.03784 -2.70972,0.101428 -3.64257,0.205078 -0.46643,0.05183 -0.86453,0.111444 -1.24414,0.201172 -0.37335,0.08825 -0.71965,0.131288 -1.28321,0.574219 -0.65264,0.508248 -0.79895,0.987483 -0.9414,1.404297 -0.14424,0.422022 -0.22997,0.840058 -0.30274,1.320312 -0.14553,0.96051 -0.22351,2.158217 -0.26172,3.673828 -0.0382,1.502201 -0.0229,2.662995 0.0742,3.589844 0.0486,0.463425 0.10726,0.863432 0.25391,1.306641 0.1419,0.428865 0.3527,1.132095 1.36914,1.554687 a 1.9845734,1.9845734 0 0 0 0.0156,0.0293 c 0.012,0.0049 0.0213,0.0011 0.0332,0.0059 0.0108,0.0042 0.0105,0.0115 0.0215,0.01563 l 0.002,-0.01172 c 0.20244,0.08 0.39015,0.05457 0.57032,0.09961 l -0.008,0.0332 a 1.9845734,1.9845734 0 0 0 0.0586,-0.02539 c 0.49928,0.118582 0.9581,0.23296 1.58984,0.27539 0.36756,0.02469 0.95755,0.02113 1.40625,0.03516 l -0.0527,1.75 a 1.9845734,1.9845734 0 0 0 0,0.002 c -0.075,2.551404 -0.0891,5.11396 -0.0391,7.689453 a 1.9845734,1.9845734 0 0 0 0.002,0.01953 c 0.0381,1.309966 0.10044,2.31474 0.21289,3.109375 0.0562,0.397318 0.1139,0.73416 0.25,1.125 0.0681,0.19542 0.14961,0.408007 0.3457,0.6875 0.19142,0.272823 0.56893,0.672093 1.21875,0.849609 0.69907,0.207606 1.1494,0.206602 1.94141,0.238282 0.82702,0.03308 1.89067,0.04183 3.21875,0.0293 1.33335,-0.01258 2.38827,-0.04616 3.20508,-0.107421 0.4084,-0.03063 0.75507,-0.06815 1.08007,-0.123047 0.32501,-0.0549 0.57803,-0.05268 1.125,-0.365235 a 1.9845734,1.9845734 0 0 0 0.1543,-0.09766 c 0.73823,-0.51673 0.75759,-0.923904 0.83789,-1.181641 0.0803,-0.257736 0.10895,-0.449741 0.13477,-0.65039 0.0516,-0.401298 0.0714,-0.825186 0.0781,-1.351563 0.0134,-1.052752 -0.0328,-2.488422 -0.13281,-4.363281 a 1.9845734,1.9845734 0 0 0 -0.002,-0.03711 l -0.50586,-6.988282 c 0.60342,0.01016 1.20191,0.03446 1.82226,0 a 1.9845734,1.9845734 0 0 0 0.0547,-0.0039 c 0.54148,-0.04512 1.01343,-0.109193 1.52734,-0.289062 0.49654,-0.173786 1.22186,-0.525077 1.60157,-1.455078 0.43675,-0.91727 0.34954,-1.378291 0.375,-2.199219 0.0272,-0.878118 0.006,-2.000093 -0.0566,-3.400391 -0.0507,-1.419836 -0.12737,-2.542335 -0.24805,-3.429687 -0.0603,-0.443676 -0.12869,-0.827085 -0.23633,-1.205078 -0.10192,-0.357899 -0.19991,-0.739623 -0.68555,-1.257813 -0.6757,-0.776429 -1.03649,-0.685105 -1.37109,-0.767578 -0.35608,-0.08777 -0.7169,-0.143474 -1.15234,-0.195313 -0.87089,-0.103676 -2.01798,-0.179307 -3.50196,-0.242187 -2.93507,-0.125428 -5.90513,-0.151346 -8.91211,-0.07617 z m 0.0977,3.966797 c 2.91969,-0.07299 5.80111,-0.04729 8.64453,0.07422 a 1.9845734,1.9845734 0 0 0 0.002,0 c 1.41948,0.06015 2.49204,0.135926 3.17773,0.216797 10e-4,0.0106 0.002,0.01068 0.004,0.02148 0.0892,0.656051 0.16677,1.689215 0.21484,3.035156 a 1.9845734,1.9845734 0 0 0 0.002,0.01758 c 0.0605,1.354158 0.0767,2.409509 0.0547,3.119141 -10e-4,0.04578 -0.0122,0.06297 -0.0156,0.107422 -0.73841,0.03414 -1.45977,0.04209 -2.1504,0.002 l -1.21484,-0.107422 a 1.9845734,1.9845734 0 0 0 -2.1543,2.119141 l 0.66602,9.185547 0.002,0.03906 c 0.0925,1.746275 0.12878,3.054011 0.1211,3.933594 -0.65887,0.04278 -1.51127,0.07687 -2.67969,0.08789 -1.28953,0.01216 -2.30706,0.0013 -3.02344,-0.02734 -0.0127,-5.1e-4 -0.005,-0.0014 -0.0176,-0.002 -0.0562,-0.538455 -0.11353,-1.158585 -0.14257,-2.154297 -3e-5,-8.99e-4 2e-5,-0.0011 0,-0.002 -0.0483,-2.5043 -0.0358,-4.997418 0.0371,-7.476563 v -0.002 l 0.11133,-3.740234 a 1.9845734,1.9845734 0 0 0 -1.98437,-2.042969 c -1.35631,0 -2.42815,-0.02752 -3.18164,-0.07813 -0.16835,-0.01131 -0.0893,-0.0048 -0.23047,-0.02344 -0.0511,-0.624196 -0.0814,-1.510957 -0.0488,-2.791015 0.0359,-1.423027 0.11734,-2.508411 0.21875,-3.177735 0.009,-0.05789 0.0143,-0.05795 0.0234,-0.109375 0.10116,-0.01446 0.13686,-0.02714 0.26172,-0.04102 0.73402,-0.08156 1.85307,-0.147353 3.30273,-0.183594 z m -4.61133,6.197266 c 0.0284,0.01064 0.0241,0.02228 0.0508,0.0332 l -0.004,0.01758 a 1.9845734,1.9845734 0 0 0 -0.0469,-0.05078 z"
           id="path27940" />
        <path
           style="color:#000000;-inkscape-font-specification:CHUCKLESOME;stroke:none;stroke-linecap:butt;stroke-linejoin:miter;-inkscape-stroke:none"
           d="m 369.21058,36.414672 q -0.59267,-0.222251 -0.48155,-4.593171 0.11113,-4.407962 0.74084,-4.889504 0.55562,-0.444501 5.00063,-0.555626 4.445,-0.111125 8.77888,0.07408 4.37092,0.185208 4.66725,0.555625 0.48155,0.481542 0.62971,4.630212 0.18521,4.148671 -0.14816,4.77838 -0.14817,0.407458 -1.48167,0.518583 -1.3335,0.07408 -2.59292,0 l -1.25942,-0.111125 q 0,0 0.66675,9.223383 0.29634,5.556255 -0.0741,5.815547 -0.51859,0.296333 -4.44501,0.333375 -3.92642,0.03704 -4.63021,-0.185208 -0.4445,-0.111125 -0.55562,-3.92642 -0.0741,-3.815295 0.037,-7.593549 l 0.11112,-3.741211 q -4.14867,0 -4.96358,-0.333375 z"
           id="path27942" />
      </g>
      <g
         id="path27859">
        <path
           style="color:#000000;-inkscape-font-specification:CHUCKLESOME;fill:#5a4870;stroke:none;stroke-linecap:butt;stroke-linejoin:miter;-inkscape-stroke:none"
           d="m 395.95508,24.058594 c -2.71122,0 -4.40242,0.01633 -5.95508,0.74414 a 1.9845734,1.9845734 0 0 0 -0.625,0.460938 c -0.51733,0.569061 -0.63468,1.029852 -0.77539,1.523437 -0.14072,0.493585 -0.23897,1.028781 -0.32422,1.65625 -0.17051,1.25494 -0.27885,2.870518 -0.3418,4.910157 a 1.9845734,1.9845734 0 0 0 0,0.01172 c -0.0999,4.044668 -0.0637,8.005078 0.11133,11.88086 0.0872,1.93162 0.18077,3.430585 0.28516,4.533203 0.0522,0.551309 0.10675,1.000005 0.17383,1.388672 0.0671,0.388667 -0.027,0.584517 0.44726,1.322265 a 1.9845734,1.9845734 0 0 0 0.0176,0.02734 c 0.70206,1.053107 1.33933,1.05294 1.9375,1.208984 0.59817,0.156045 1.26306,0.252054 2.07617,0.332032 a 1.9845734,1.9845734 0 0 0 0.0312,0.002 c 1.59136,0.130438 3.17406,0.15663 4.74414,0.07813 0.79959,-0.03998 1.44518,-0.09946 2.03516,-0.22461 0.29499,-0.06257 0.57688,-0.137047 0.90625,-0.289062 0.32937,-0.152015 0.78564,-0.37361 1.14648,-1.035156 a 1.9845734,1.9845734 0 0 0 0.0586,-0.119141 c 0.4062,-0.880105 0.307,-1.151564 0.36328,-1.832031 0.0563,-0.680468 0.0967,-1.549889 0.125,-2.642578 0.0566,-2.18399 0.0664,-5.250264 0.0293,-9.222657 v -0.002 c -0.0247,-3.979615 -0.0599,-6.988895 -0.10351,-9.039062 -0.0218,-1.025305 -0.0462,-1.807901 -0.0742,-2.373047 -0.014,-0.282573 -0.0266,-0.507335 -0.0469,-0.710938 -0.0102,-0.101801 -0.0216,-0.194734 -0.0449,-0.324218 -0.0187,-0.103567 -0.0655,-0.318761 -0.28711,-0.703125 -0.44223,-0.793735 -1.00575,-1.001415 -1.39062,-1.136719 -0.41518,-0.145959 -0.7931,-0.212754 -1.22461,-0.269531 -0.86302,-0.113555 -1.92741,-0.15625 -3.29492,-0.15625 z m 0,3.96875 c 1.07576,0 1.77699,0.04732 2.34375,0.101562 0.018,0.468939 0.0367,0.936397 0.0527,1.6875 0.0428,2.011626 0.0769,5.009754 0.10156,8.980469 a 1.9845734,1.9845734 0 0 0 0,0.0078 c 0.0369,3.950846 0.0271,6.988783 -0.0273,9.087891 -0.0248,0.95715 -0.063,1.6599 -0.10351,2.205078 -0.24856,0.02831 -0.39431,0.05966 -0.76368,0.07813 -1.39067,0.06954 -2.79422,0.04563 -4.21289,-0.07031 -0.46867,-0.04699 -0.72293,-0.100612 -0.99804,-0.152344 -0.0228,-0.183905 -0.043,-0.301075 -0.0664,-0.548828 -0.0932,-0.984062 -0.18586,-2.441872 -0.27148,-4.337891 -0.17052,-3.775677 -0.2067,-7.639639 -0.10938,-11.591797 v -0.002 c 8e-5,-0.0033 -8e-5,-0.0064 0,-0.0098 0.0606,-1.953498 0.16883,-3.472016 0.30664,-4.486329 0.0399,-0.29393 0.0801,-0.435436 0.12109,-0.636718 0.4387,-0.08509 1.48279,-0.3125 3.62696,-0.3125 z"
           id="path27946" />
        <path
           style="color:#000000;-inkscape-font-specification:CHUCKLESOME;stroke:none;stroke-linecap:butt;stroke-linejoin:miter;-inkscape-stroke:none"
           d="m 390.62063,51.416559 q -0.33338,-0.518583 -0.59267,-6.260047 -0.25929,-5.741463 -0.11112,-11.742218 0.1852,-6.000755 0.92604,-6.815673 1.18533,-0.555625 5.11175,-0.555625 3.96346,0 4.22276,0.555625 0.1852,0.259292 0.25929,12.186719 0.11112,11.890385 -0.33338,12.85347 -0.22225,0.407458 -2.44475,0.518583 -2.2225,0.111126 -4.48204,-0.07408 -2.25955,-0.22225 -2.55588,-0.666751 z"
           id="path27948" />
      </g>
      <g
         id="path27861">
        <path
           style="color:#000000;-inkscape-font-specification:CHUCKLESOME;fill:#5a4870;stroke:none;stroke-linecap:butt;stroke-linejoin:miter;-inkscape-stroke:none"
           d="m 418.50195,23.761719 c -1.85338,3.14e-4 -3.74156,0.07674 -5.66406,0.228515 a 1.9845734,1.9845734 0 0 0 -0.002,0 c -1.95976,0.156781 -3.78867,0.473709 -5.48438,0.957032 -1.74646,0.472465 -3.15675,1.059143 -4.13867,2.316406 -1.09738,1.37908 -1.61543,3.174345 -2.06055,5.609375 a 1.9845734,1.9845734 0 0 0 -0.004,0.01563 c -0.4135,2.377705 -0.64404,4.849065 -0.69532,7.412109 a 1.9845734,1.9845734 0 0 0 0,0.01953 c -0.0261,2.607535 0.22049,5.085348 0.75196,7.423829 a 1.9845734,1.9845734 0 0 0 0.006,0.02148 c 0.57437,2.406883 1.39497,4.312683 3.10742,5.425781 a 1.9845734,1.9845734 0 0 0 0.0273,0.01758 c 1.67919,1.054371 3.79646,1.335748 6.66797,1.414063 2.82112,0.07625 5.5046,-0.02609 8.04883,-0.308594 2.52187,-0.277406 4.60168,-0.60401 6.28125,-1.003906 a 1.9845734,1.9845734 0 0 0 0.125,-0.04687 l 0.006,-0.002 a 1.9845734,1.9845734 0 0 0 0.0137,-0.0039 1.9845734,1.9845734 0 0 0 0.2832,-0.103515 c -0.21522,0.107611 -0.1714,0.07589 -0.16796,0.06836 0.16771,-0.01807 0.28242,0.0033 0.72265,-0.216797 l -0.25976,0.107422 c 0.074,-0.02468 0.18582,-0.06194 0.33398,-0.111328 a 1.9845734,1.9845734 0 0 0 0.25977,-0.107422 c 0.26655,-0.133256 0.5912,0.04341 1.14843,-1.072265 l -0.37304,0.515625 c 0.0494,-0.04936 0.12388,-0.123886 0.22265,-0.222657 a 1.9845734,1.9845734 0 0 0 0.14649,-0.162109 c 0.35061,-0.438377 0.65703,-1.253047 0.50781,-2 l 0.0371,0.388672 v -0.480469 a 1.9845734,1.9845734 0 0 0 -0.0566,-0.474609 c -0.51783,-2.109214 -0.99291,-3.735194 -1.47852,-4.966797 -0.2428,-0.615802 -0.48109,-1.131801 -0.79492,-1.611328 -0.31383,-0.479527 -0.67594,-1.055572 -1.66406,-1.337891 a 1.9845734,1.9845734 0 0 0 -0.0234,-0.0059 c -0.66679,-0.18185 -0.73222,-0.09566 -1.01953,-0.08789 -0.28731,0.0078 -0.62022,0.02808 -1.0293,0.06055 -0.81388,0.06459 -1.92461,0.17738 -3.3457,0.337891 -2.66777,0.278375 -4.41852,0.121416 -4.49805,0.125 -0.0501,-0.100488 -0.1731,-0.34357 -0.28711,-0.841797 v -0.002 c -0.25237,-1.136608 -0.32389,-2.269103 -0.21875,-3.425782 a 1.9845734,1.9845734 0 0 0 0,-0.002 c 0.0888,-0.994048 0.25091,-1.33839 0.30664,-1.515625 0.11095,-0.03689 0.16877,-0.07973 0.42969,-0.08594 0.93783,-0.02181 1.92004,0.04426 2.95117,0.201172 a 1.9845734,1.9845734 0 0 0 0.043,0.0059 c 1.19874,0.156358 2.35441,0.24886 3.46875,0.275391 a 1.9845734,1.9845734 0 0 0 0.002,0 c 0.60956,0.01418 1.13829,-0.0025 1.66406,-0.0918 0.45229,-0.07681 0.9683,-0.279854 1.5039,-0.707032 0.40437,-0.302464 0.70641,-0.615431 0.85743,-0.880859 0.19089,-0.335511 0.32577,-0.663607 0.46093,-1.039062 0.27033,-0.750911 0.52171,-1.6815 0.79102,-2.861329 a 1.9845734,1.9845734 0 0 0 0,-0.0039 c 0.26754,-1.184811 0.4527,-2.146283 0.55273,-2.939453 0.0994,-0.788241 0.29173,-1.256018 -0.11523,-2.314453 -0.32499,-0.857096 -0.84124,-1.06868 -1.14258,-1.216797 -0.30258,-0.148728 -0.5385,-0.21489 -0.78516,-0.275391 -0.49219,-0.120728 -1.02207,-0.193135 -1.6875,-0.259765 h -0.004 c -1.31403,-0.133902 -2.87815,-0.182586 -4.7168,-0.158203 z m 0.0117,3.96875 a 1.9845734,1.9845734 0 0 0 0.0274,0 c 1.75131,-0.02399 3.19133,0.02666 4.28906,0.138672 a 1.9845734,1.9845734 0 0 0 0.004,0 c 0.0582,0.0058 0.0623,0.01153 0.11719,0.01758 -0.0848,0.564057 -0.198,1.22451 -0.41015,2.164062 -0.24879,1.089256 -0.48043,1.911553 -0.6543,2.394531 -0.0145,0.04016 -0.0156,0.03502 -0.0293,0.07031 -0.16904,0.01431 -0.31669,0.0327 -0.63086,0.02539 -0.95998,-0.02286 -1.97567,-0.10221 -3.04883,-0.242188 l 0.041,0.0059 c -1.24076,-0.18881 -2.45473,-0.271719 -3.64063,-0.24414 a 1.9845734,1.9845734 0 0 0 -0.002,0 c -1.25372,0.02985 -2.49645,-0.01199 -3.49414,1.384765 -0.79399,1.111573 -0.96447,2.29216 -1.10156,3.826172 -6e-5,6.53e-4 6e-5,0.0013 0,0.002 -6e-5,7.08e-4 6e-5,0.0012 0,0.002 -0.1412,1.557749 -0.0408,3.11607 0.29883,4.644531 a 1.9845734,1.9845734 0 0 0 0.002,0.0078 c 0.36177,1.597834 1.06026,3.176334 2.75195,3.740235 1.67632,0.55877 3.39481,0.359548 6.31641,0.05469 a 1.9845734,1.9845734 0 0 0 0.0156,-0.002 c 1.40796,-0.15916 2.49288,-0.267633 3.23047,-0.326172 0.12934,-0.01026 0.18182,-0.01046 0.28907,-0.01758 0.0786,0.1575 0.13431,0.239312 0.23632,0.498047 0.29673,0.752561 0.68106,2.135912 1.06836,3.611328 -1.41387,0.325041 -3.24127,0.629645 -5.56054,0.884766 a 1.9845734,1.9845734 0 0 0 -0.002,0 c -2.34417,0.260463 -4.84618,0.357039 -7.50586,0.285156 -2.54506,-0.06941 -4.18949,-0.523131 -4.64648,-0.802734 -0.26562,-0.178127 -0.93846,-1.081034 -1.39844,-2.996094 -0.4552,-2.005728 -0.67758,-4.167513 -0.6543,-6.496094 0.0482,-2.362283 0.26097,-4.620597 0.63477,-6.775391 v -0.002 c 0.39308,-2.148627 0.98557,-3.509785 1.26367,-3.857422 a 1.9845734,1.9845734 0 0 0 0.0156,-0.02148 c 0.0521,-0.06698 0.70832,-0.566228 2.0625,-0.931641 a 1.9845734,1.9845734 0 0 0 0.0293,-0.0078 c 1.41118,-0.403194 2.98462,-0.679195 4.72266,-0.818359 1.82708,-0.144244 3.61495,-0.216797 5.36328,-0.216797 z m 5.6875,21.800781 c 6.4e-4,0.0024 0.001,0.0034 0.002,0.0059 -0.0793,0.03035 -0.0964,0.01303 -0.20703,0.06836 z"
           id="path27952" />
        <path
           style="color:#000000;-inkscape-font-specification:CHUCKLESOME;stroke:none;stroke-linecap:butt;stroke-linejoin:miter;-inkscape-stroke:none"
           d="m 424.99529,26.376371 q 0.25929,0.666751 -0.51858,4.111629 -0.77788,3.407836 -1.3335,3.70417 -0.37042,0.370417 -1.96321,0.333375 -1.55575,-0.03704 -3.25967,-0.259292 -1.70392,-0.259292 -3.29671,-0.22225 -1.55575,0.03704 -1.92617,0.555625 -0.55563,0.777876 -0.74084,2.852211 -0.1852,2.037294 0.2593,4.037545 0.4445,1.96321 1.44462,2.296586 1.22238,0.407458 5.48217,-0.03704 4.2598,-0.481542 4.66726,-0.370417 1.03717,0.296333 2.55588,6.482297 0,0.259292 0,0.481542 0.037,0.185209 -0.11113,0.370417 -0.14817,0.148167 -0.22225,0.22225 -0.037,0.07408 -0.25929,0.185209 -0.22225,0.07408 -0.33338,0.111125 -0.0741,0.03704 -0.29633,0.07408 -0.18521,0.03704 -0.25929,0.07408 -2.33363,0.555625 -6.0378,0.963084 -3.66713,0.407459 -7.77876,0.296334 -4.07458,-0.111126 -5.66738,-1.111251 -1.48166,-0.963085 -2.25954,-4.222754 -0.74083,-3.25967 -0.70379,-6.963839 0.0741,-3.70417 0.66675,-7.112006 0.62971,-3.444878 1.66687,-4.741338 0.77788,-1.000126 3.11151,-1.629835 2.33362,-0.66675 5.11175,-0.889 2.81517,-0.222251 5.51922,-0.222251 2.70404,-0.03704 4.51908,0.148167 1.85209,0.185209 1.96321,0.481542 z"
           id="path27954" />
      </g>
      <g
         id="path27863">
        <path
           style="color:#000000;-inkscape-font-specification:CHUCKLESOME;fill:#5a4870;stroke:none;stroke-linecap:butt;stroke-linejoin:miter;-inkscape-stroke:none"
           d="m 435.16602,24.058594 c -1.91459,0.05038 -3.43892,0.143125 -4.63086,0.292968 -1.16191,0.146068 -1.9003,0.117959 -2.94727,0.90625 l -0.004,-0.01367 c -0.0113,0.0081 -0.005,0.01534 -0.0156,0.02344 -0.02,0.01523 -0.0344,0.01149 -0.0547,0.02734 a 1.9845734,1.9845734 0 0 0 -0.0254,0.08789 c -0.59823,0.493011 -0.82583,0.976391 -0.98047,1.416016 -0.16977,0.482632 -0.27899,0.986874 -0.37695,1.578125 -0.19592,1.182502 -0.32566,2.705419 -0.41406,4.650391 a 1.9845734,1.9845734 0 0 0 0,0.01367 c -0.15049,3.86277 -0.1265,7.713984 0.0742,11.552734 0.10035,1.919391 0.22221,3.427704 0.37695,4.578125 0.0774,0.57521 0.16072,1.057809 0.27344,1.498047 0.11271,0.440238 0.15277,0.81497 0.66015,1.423828 a 1.9845734,1.9845734 0 0 0 0.01,0.01172 c 0.46791,0.552989 0.84031,0.665026 1.18164,0.798828 0.34133,0.133802 0.67575,0.225495 1.05664,0.310547 0.76177,0.170104 1.69932,0.305589 2.87695,0.433593 a 1.9845734,1.9845734 0 0 0 0.002,0 c 2.35679,0.253419 4.88918,0.416844 7.60156,0.492188 2.72613,0.07573 5.31086,0.02594 7.75586,-0.152344 1.25732,-0.09073 2.28977,-0.218538 3.16211,-0.414062 0.87234,-0.195525 1.60605,-0.336518 2.39453,-1.125 1.03641,-1.036407 1.04963,-1.913254 1.25781,-3.148438 0.20766,-1.23212 0.34308,-2.792383 0.43164,-4.746094 0.20069,-3.913946 0.21321,-7.733758 0.0371,-11.457031 l 0.002,0.01367 c -0.0751,-1.864969 -0.16893,-3.319559 -0.28906,-4.414062 -0.0601,-0.547252 -0.12394,-1.001246 -0.21289,-1.41211 -0.089,-0.410864 -0.0502,-0.721401 -0.59961,-1.408203 -0.66114,-0.826429 -1.09287,-0.801257 -1.52148,-0.927734 -0.42862,-0.126477 -0.88194,-0.212832 -1.42578,-0.294922 -1.08769,-0.16418 -2.52219,-0.293171 -4.36915,-0.40625 -3.68989,-0.225913 -7.45339,-0.289681 -11.2871,-0.189453 z m 0.10546,3.96875 c 3.72279,-0.09733 7.36919,-0.03695 10.93946,0.18164 1.78312,0.109171 3.14401,0.238941 4.01953,0.371094 0.16443,0.02482 0.20816,0.0421 0.33594,0.06641 0.0245,0.165816 0.0457,0.260362 0.0703,0.484375 0.10212,0.930441 0.19451,2.326123 0.26758,4.140625 a 1.9845734,1.9845734 0 0 0 0.002,0.01367 c 0.16962,3.586282 0.15726,7.275688 -0.0371,11.066406 a 1.9845734,1.9845734 0 0 0 0,0.01172 c -0.0843,1.867103 -0.22057,3.316676 -0.38281,4.279297 -0.0799,0.473909 -0.22768,0.830513 -0.30469,1.021484 -0.0137,-0.0081 0.068,-0.04403 -0.30273,0.03906 -0.55994,0.125504 -1.44204,0.244045 -2.58008,0.326172 -2.29633,0.167441 -4.74956,0.216972 -7.35742,0.144531 -2.62094,-0.0728 -5.05123,-0.230341 -7.28711,-0.470703 h -0.002 c -1.08771,-0.11829 -1.91553,-0.245984 -2.42578,-0.359375 -0.0407,-0.20294 -0.0815,-0.378134 -0.125,-0.701172 -0.12925,-0.960953 -0.24851,-2.397 -0.3457,-4.255859 -0.19415,-3.713208 -0.21945,-7.439221 -0.0742,-11.177735 0.0845,-1.857971 0.21543,-3.279415 0.36523,-4.183593 0.0434,-0.261974 0.0785,-0.363513 0.11915,-0.527344 0.22591,-0.0714 0.48279,-0.160906 0.86523,-0.208985 0.96882,-0.121794 2.40127,-0.213324 4.24023,-0.261718 z m -5.32617,0.351562 0.01,0.0293 c -0.0555,0.04943 0.0257,7.4e-5 -0.0645,0.06445 a 1.9845734,1.9845734 0 0 0 0.0547,-0.09375 z m 11.09961,4.087891 c -1.06588,-0.02568 -1.9244,-0.0146 -2.63867,0.04492 -0.71427,0.05952 -1.18109,-0.10106 -2.17578,0.664062 a 1.9845734,1.9845734 0 0 0 -0.125,0.103516 c -0.77993,0.709019 -0.6973,1.100496 -0.7793,1.474609 -0.082,0.374113 -0.12507,0.747438 -0.16015,1.189453 -0.0702,0.884031 -0.0927,2.024399 -0.0801,3.488282 0.0125,1.442663 0.0465,2.56882 0.10742,3.421875 0.0305,0.426527 0.0667,0.781534 0.12305,1.115234 0.0564,0.3337 -0.0449,0.556219 0.48242,1.28125 a 1.9845734,1.9845734 0 0 0 0.0566,0.07227 c 0.54448,0.680587 0.94565,0.719862 1.27148,0.822265 0.32583,0.102403 0.62458,0.157615 0.96289,0.207031 0.67664,0.09883 1.49745,0.156807 2.53711,0.195313 a 1.9845734,1.9845734 0 0 0 0.0254,0 c 1.05447,0.02604 1.91179,0.01026 2.65039,-0.07617 0.73861,-0.08643 1.37613,-0.005 2.28321,-0.912109 a 1.9845734,1.9845734 0 0 0 0.0547,-0.05664 c 0.57291,-0.620648 0.58146,-0.994092 0.66993,-1.375 0.0885,-0.380908 0.13951,-0.769839 0.18164,-1.222656 0.0842,-0.905635 0.11914,-2.0589 0.11914,-3.525391 0,-1.452235 -0.0211,-2.570377 -0.0684,-3.40039 -0.0236,-0.415007 -0.0503,-0.75418 -0.0996,-1.076172 -0.0247,-0.160997 -0.0511,-0.314879 -0.11133,-0.517578 -0.0572,-0.19255 -0.0999,-0.460459 -0.5332,-0.917969 -0.62645,-0.680826 -0.9671,-0.632125 -1.26172,-0.705078 -0.30648,-0.07589 -0.59131,-0.115803 -0.92383,-0.152344 -0.66504,-0.07308 -1.50038,-0.11715 -2.56836,-0.142578 z m -0.0957,3.96875 c 0.73934,0.0176 1.18596,0.05212 1.63867,0.08594 0.0322,0.688687 0.0547,1.58668 0.0547,2.857422 0,1.397201 -0.0377,2.46904 -0.10156,3.15625 -0.42845,0.03558 -0.97261,0.06372 -1.76758,0.04492 -0.003,-9.8e-5 -0.003,9.9e-5 -0.006,0 -0.73639,-0.02741 -1.19014,-0.07547 -1.61914,-0.121094 -0.0474,-0.703037 -0.082,-1.712395 -0.0937,-3.060547 -0.0113,-1.309273 0.0179,-2.261439 0.0645,-2.9375 0.47035,-0.02522 1.0165,-0.04499 1.83008,-0.02539 z"
           id="path27958" />
        <path
           style="color:#000000;-inkscape-font-specification:CHUCKLESOME;stroke:none;stroke-linecap:butt;stroke-linejoin:miter;-inkscape-stroke:none"
           d="m 428.73647,26.857913 q 0.85196,-0.66675 6.4823,-0.814917 5.66738,-0.148167 11.11251,0.185209 5.44513,0.333375 5.88963,0.889 0.4445,0.555626 0.66675,6.074839 0.25929,5.482171 -0.037,11.260676 -0.25929,5.741463 -1.11125,6.593422 -0.70379,0.703793 -4.29684,0.963085 -3.556,0.259292 -7.5565,0.148166 -4.00051,-0.111125 -7.44539,-0.481542 -3.40783,-0.370417 -3.81529,-0.851959 -0.55563,-0.66675 -0.85196,-6.33413 -0.29633,-5.66738 -0.0741,-11.371802 0.25929,-5.704421 1.03716,-6.260047 z m 8.7048,7.889882 q -0.40746,0.370417 -0.37041,4.667254 0.037,4.259795 0.33337,4.667254 0.29634,0.370417 3.29671,0.481542 3.00038,0.07408 3.48192,-0.407458 0.4445,-0.481543 0.4445,-4.77838 0,-4.296837 -0.25929,-4.556128 -0.25929,-0.296334 -3.37079,-0.370417 -3.07446,-0.07408 -3.55601,0.296333 z"
           id="path27960" />
      </g>
    </g>
  </g>
</svg>
